{"asset":{"version":"2.0","generator":"Blockbench 4.9.4 glTF exporter"},"scenes":[{"nodes":[12],"name":"blockbench_export"}],"scene":0,"nodes":[{"name":"easthallwall","mesh":0},{"name":"easthallceiling","mesh":1},{"rotation":[0,-0.3826834323650898,0,0.9238795325112867],"name":"easthallpaper","mesh":2},{"name":"easthallshelf","mesh":3},{"name":"easthallwire","mesh":4},{"name":"easthallprop","mesh":5},{"name":"easthallprop2","mesh":6},{"name":"easthallhangingpaper","mesh":7},{"name":"easthallhangingposter","mesh":8},{"name":"easthallfloor","mesh":9},{"name":"easthallprop3","mesh":10},{"name":"easthallshelfprops","mesh":11},{"children":[0,1,2,3,4,5,6,7,8,9,10,11]}],"bufferViews":[{"buffer":0,"byteOffset":0,"byteLength":240,"target":34962,"byteStride":12},{"buffer":0,"byteOffset":240,"byteLength":240,"target":34962,"byteStride":12},{"buffer":0,"byteOffset":480,"byteLength":160,"target":34962,"byteStride":8},{"buffer":0,"byteOffset":640,"byteLength":60,"target":34963},{"buffer":0,"byteOffset":700,"byteLength":48,"target":34962,"byteStride":12},{"buffer":0,"byteOffset":748,"byteLength":48,"target":34962,"byteStride":12},{"buffer":0,"byteOffset":796,"byteLength":32,"target":34962,"byteStride":8},{"buffer":0,"byteOffset":828,"byteLength":12,"target":34963},{"buffer":0,"byteOffset":840,"byteLength":2448,"target":34962,"byteStride":12},{"buffer":0,"byteOffset":3288,"byteLength":2448,"target":34962,"byteStride":12},{"buffer":0,"byteOffset":5736,"byteLength":1632,"target":34962,"byteStride":8},{"buffer":0,"byteOffset":7368,"byteLength":504,"target":34963},{"buffer":0,"byteOffset":7872,"byteLength":1872,"target":34962,"byteStride":12},{"buffer":0,"byteOffset":9744,"byteLength":1872,"target":34962,"byteStride":12},{"buffer":0,"byteOffset":11616,"byteLength":1248,"target":34962,"byteStride":8},{"buffer":0,"byteOffset":12864,"byteLength":468,"target":34963},{"buffer":0,"byteOffset":13332,"byteLength":48,"target":34962,"byteStride":12},{"buffer":0,"byteOffset":13380,"byteLength":48,"target":34962,"byteStride":12},{"buffer":0,"byteOffset":13428,"byteLength":32,"target":34962,"byteStride":8},{"buffer":0,"byteOffset":13460,"byteLength":12,"target":34963},{"buffer":0,"byteOffset":13472,"byteLength":240,"target":34962,"byteStride":12},{"buffer":0,"byteOffset":13712,"byteLength":240,"target":34962,"byteStride":12},{"buffer":0,"byteOffset":13952,"byteLength":160,"target":34962,"byteStride":8},{"buffer":0,"byteOffset":14112,"byteLength":60,"target":34963},{"buffer":0,"byteOffset":14172,"byteLength":96,"target":34962,"byteStride":12},{"buffer":0,"byteOffset":14268,"byteLength":96,"target":34962,"byteStride":12},{"buffer":0,"byteOffset":14364,"byteLength":64,"target":34962,"byteStride":8},{"buffer":0,"byteOffset":14428,"byteLength":24,"target":34963},{"buffer":0,"byteOffset":14452,"byteLength":960,"target":34962,"byteStride":12},{"buffer":0,"byteOffset":15412,"byteLength":960,"target":34962,"byteStride":12},{"buffer":0,"byteOffset":16372,"byteLength":640,"target":34962,"byteStride":8},{"buffer":0,"byteOffset":17012,"byteLength":240,"target":34963},{"buffer":0,"byteOffset":17252,"byteLength":144,"target":34962,"byteStride":12},{"buffer":0,"byteOffset":17396,"byteLength":144,"target":34962,"byteStride":12},{"buffer":0,"byteOffset":17540,"byteLength":96,"target":34962,"byteStride":8},{"buffer":0,"byteOffset":17636,"byteLength":36,"target":34963},{"buffer":0,"byteOffset":17672,"byteLength":48,"target":34962,"byteStride":12},{"buffer":0,"byteOffset":17720,"byteLength":48,"target":34962,"byteStride":12},{"buffer":0,"byteOffset":17768,"byteLength":32,"target":34962,"byteStride":8},{"buffer":0,"byteOffset":17800,"byteLength":12,"target":34963},{"buffer":0,"byteOffset":17812,"byteLength":192,"target":34962,"byteStride":12},{"buffer":0,"byteOffset":18004,"byteLength":192,"target":34962,"byteStride":12},{"buffer":0,"byteOffset":18196,"byteLength":128,"target":34962,"byteStride":8},{"buffer":0,"byteOffset":18324,"byteLength":48,"target":34963},{"buffer":0,"byteOffset":18372,"byteLength":48,"target":34962,"byteStride":12},{"buffer":0,"byteOffset":18420,"byteLength":48,"target":34962,"byteStride":12},{"buffer":0,"byteOffset":18468,"byteLength":32,"target":34962,"byteStride":8},{"buffer":0,"byteOffset":18500,"byteLength":12,"target":34963}],"buffers":[{"byteLength":18512,"uri":"data:application/octet-stream;base64,"}],"accessors":[{"bufferView":0,"componentType":5126,"count":20,"max":[9.8125,4.625,5.5],"min":[-5.4375,0,2],"type":"VEC3"},{"bufferView":1,"componentType":5126,"count":20,"max":[1,0,0],"min":[0,0,-1],"type":"VEC3"},{"bufferView":2,"componentType":5126,"count":20,"max":[0.953125,0.875],"min":[0,0],"type":"VEC2"},{"bufferView":3,"componentType":5123,"count":30,"max":[19],"min":[0],"type":"SCALAR"},{"bufferView":4,"componentType":5126,"count":4,"max":[9.8125,4.625,5.25],"min":[-5.4375,4.625,2.25],"type":"VEC3"},{"bufferView":5,"componentType":5126,"count":4,"max":[0,1,0],"min":[0,1,0],"type":"VEC3"},{"bufferView":6,"componentType":5126,"count":4,"max":[0.953125,0.1875],"min":[0,0],"type":"VEC2"},{"bufferView":7,"componentType":5123,"count":6,"max":[3],"min":[0],"type":"SCALAR"},{"bufferView":8,"componentType":5126,"count":204,"max":[0.4047985076904297,0.24080589413642883,7.19733190536499],"min":[-1.129801630973816,-0.008851493708789349,4.911194801330566],"type":"VEC3"},{"bufferView":9,"componentType":5126,"count":204,"max":[0.9754787087440491,1,0.9528573751449585],"min":[-0.9754787087440491,-0.888049840927124,-0.9528573751449585],"type":"VEC3"},{"bufferView":10,"componentType":5126,"count":204,"max":[0.9375,0.9375],"min":[0,0],"type":"VEC2"},{"bufferView":11,"componentType":5123,"count":252,"max":[203],"min":[0],"type":"SCALAR"},{"bufferView":12,"componentType":5126,"count":156,"max":[1.1875,1.5,5.25],"min":[-0.9375,0,4.5],"type":"VEC3"},{"bufferView":13,"componentType":5126,"count":156,"max":[1,1,0],"min":[-1,-1,-1],"type":"VEC3"},{"bufferView":14,"componentType":5126,"count":156,"max":[0.8046875,0.7578125],"min":[0,0],"type":"VEC2"},{"bufferView":15,"componentType":5123,"count":234,"max":[155],"min":[0],"type":"SCALAR"},{"bufferView":16,"componentType":5126,"count":4,"max":[1.1875,0.015625,5.1875],"min":[-2.8125,0.015625,2.1875],"type":"VEC3"},{"bufferView":17,"componentType":5126,"count":4,"max":[0,1,0],"min":[0,1,0],"type":"VEC3"},{"bufferView":18,"componentType":5126,"count":4,"max":[1,0.75],"min":[0,0],"type":"VEC2"},{"bufferView":19,"componentType":5123,"count":6,"max":[3],"min":[0],"type":"SCALAR"},{"bufferView":20,"componentType":5126,"count":20,"max":[7.8125,4.625,5.25],"min":[-5.375,3.5,2.25],"type":"VEC3"},{"bufferView":21,"componentType":5126,"count":20,"max":[0,0,1],"min":[-1,0,0],"type":"VEC3"},{"bufferView":22,"componentType":5126,"count":20,"max":[0.5078125,0.4375],"min":[0,0],"type":"VEC2"},{"bufferView":23,"componentType":5123,"count":30,"max":[19],"min":[0],"type":"SCALAR"},{"bufferView":24,"componentType":5126,"count":8,"max":[9.875,4.625,5.171875],"min":[-5.4375,3.5,2.3125],"type":"VEC3"},{"bufferView":25,"componentType":5126,"count":8,"max":[0,0,1],"min":[0,0,1],"type":"VEC3"},{"bufferView":26,"componentType":5126,"count":8,"max":[0.95703125,0.14453125],"min":[0,0],"type":"VEC2"},{"bufferView":27,"componentType":5123,"count":12,"max":[7],"min":[0],"type":"SCALAR"},{"bufferView":28,"componentType":5126,"count":80,"max":[4.125,3.875,5.1875],"min":[-5.421875,1.78125,2.71875],"type":"VEC3"},{"bufferView":29,"componentType":5126,"count":80,"max":[1,0.08304548263549805,1],"min":[0,0,-0.12403473258018494],"type":"VEC3"},{"bufferView":30,"componentType":5126,"count":80,"max":[0.78125,0.859375],"min":[0,0],"type":"VEC2"},{"bufferView":31,"componentType":5123,"count":120,"max":[79],"min":[0],"type":"SCALAR"},{"bufferView":32,"componentType":5126,"count":12,"max":[9.25,3.6875,5.1875],"min":[6.125,1.9375,5.1875],"type":"VEC3"},{"bufferView":33,"componentType":5126,"count":12,"max":[8.881784197001252e-16,0,1],"min":[8.881784197001252e-16,0,1],"type":"VEC3"},{"bufferView":34,"componentType":5126,"count":12,"max":[0.515625,0.765625],"min":[0,0],"type":"VEC2"},{"bufferView":35,"componentType":5123,"count":18,"max":[11],"min":[0],"type":"SCALAR"},{"bufferView":36,"componentType":5126,"count":4,"max":[9.8125,0,5.25],"min":[-5.4375,0,2.25],"type":"VEC3"},{"bufferView":37,"componentType":5126,"count":4,"max":[0,1,0],"min":[0,1,0],"type":"VEC3"},{"bufferView":38,"componentType":5126,"count":4,"max":[0.953125,0.1875],"min":[0,0],"type":"VEC2"},{"bufferView":39,"componentType":5123,"count":6,"max":[3],"min":[0],"type":"SCALAR"},{"bufferView":40,"componentType":5126,"count":16,"max":[9.5625,4.4375,5.203125],"min":[-2.75,1.4375,2.265625],"type":"VEC3"},{"bufferView":41,"componentType":5126,"count":16,"max":[0,0,1],"min":[0,0,1],"type":"VEC3"},{"bufferView":42,"componentType":5126,"count":16,"max":[0.5078125,0.3828125],"min":[0,0],"type":"VEC2"},{"bufferView":43,"componentType":5123,"count":24,"max":[15],"min":[0],"type":"SCALAR"},{"bufferView":44,"componentType":5126,"count":4,"max":[1.0625,1.4375,4.625],"min":[-0.8125,0.125,4.625],"type":"VEC3"},{"bufferView":45,"componentType":5126,"count":4,"max":[0,0,1],"min":[0,0,1],"type":"VEC3"},{"bufferView":46,"componentType":5126,"count":4,"max":[0.9375,0.65625],"min":[0,0],"type":"VEC2"},{"bufferView":47,"componentType":5123,"count":6,"max":[3],"min":[0],"type":"SCALAR"}],"materials":[{"pbrMetallicRoughness":{"metallicFactor":0,"roughnessFactor":1,"baseColorTexture":{"index":0}},"alphaMode":"MASK","alphaCutoff":0.05,"doubleSided":true},{"pbrMetallicRoughness":{"metallicFactor":0,"roughnessFactor":1,"baseColorTexture":{"index":1}},"alphaMode":"MASK","alphaCutoff":0.05,"doubleSided":true},{"pbrMetallicRoughness":{"metallicFactor":0,"roughnessFactor":1,"baseColorTexture":{"index":2}},"alphaMode":"MASK","alphaCutoff":0.05,"doubleSided":true},{"pbrMetallicRoughness":{"metallicFactor":0,"roughnessFactor":1,"baseColorTexture":{"index":3}},"alphaMode":"MASK","alphaCutoff":0.05,"doubleSided":true},{"pbrMetallicRoughness":{"metallicFactor":0,"roughnessFactor":1,"baseColorTexture":{"index":4}},"alphaMode":"MASK","alphaCutoff":0.05,"doubleSided":true},{"pbrMetallicRoughness":{"metallicFactor":0,"roughnessFactor":1,"baseColorTexture":{"index":5}},"alphaMode":"MASK","alphaCutoff":0.05,"doubleSided":true},{"pbrMetallicRoughness":{"metallicFactor":0,"roughnessFactor":1,"baseColorTexture":{"index":6}},"alphaMode":"MASK","alphaCutoff":0.05,"doubleSided":true},{"pbrMetallicRoughness":{"metallicFactor":0,"roughnessFactor":1,"baseColorTexture":{"index":7}},"alphaMode":"MASK","alphaCutoff":0.05,"doubleSided":true},{"pbrMetallicRoughness":{"metallicFactor":0,"roughnessFactor":1,"baseColorTexture":{"index":8}},"alphaMode":"MASK","alphaCutoff":0.05,"doubleSided":true},{"pbrMetallicRoughness":{"metallicFactor":0,"roughnessFactor":1,"baseColorTexture":{"index":9}},"alphaMode":"MASK","alphaCutoff":0.05,"doubleSided":true},{"pbrMetallicRoughness":{"metallicFactor":0,"roughnessFactor":1,"baseColorTexture":{"index":10}},"alphaMode":"MASK","alphaCutoff":0.05,"doubleSided":true},{"pbrMetallicRoughness":{"metallicFactor":0,"roughnessFactor":1,"baseColorTexture":{"index":11}},"alphaMode":"MASK","alphaCutoff":0.05,"doubleSided":true}],"textures":[{"sampler":0,"source":0},{"sampler":1,"source":1},{"sampler":2,"source":2},{"sampler":3,"source":3},{"sampler":4,"source":4},{"sampler":5,"source":5},{"sampler":6,"source":6},{"sampler":7,"source":7},{"sampler":8,"source":8},{"sampler":9,"source":9},{"sampler":10,"source":10},{"sampler":11,"source":11}],"samplers":[{"magFilter":9728,"minFilter":9728,"wrapS":33071,"wrapT":33071},{"magFilter":9728,"minFilter":9728,"wrapS":33071,"wrapT":33071},{"magFilter":9728,"minFilter":9728,"wrapS":33071,"wrapT":33071},{"magFilter":9728,"minFilter":9728,"wrapS":33071,"wrapT":33071},{"magFilter":9728,"minFilter":9728,"wrapS":33071,"wrapT":33071},{"magFilter":9728,"minFilter":9728,"wrapS":33071,"wrapT":33071},{"magFilter":9728,"minFilter":9728,"wrapS":33071,"wrapT":33071},{"magFilter":9728,"minFilter":9728,"wrapS":33071,"wrapT":33071},{"magFilter":9728,"minFilter":9728,"wrapS":33071,"wrapT":33071},{"magFilter":9728,"minFilter":9728,"wrapS":33071,"wrapT":33071},{"magFilter":9728,"minFilter":9728,"wrapS":33071,"wrapT":33071},{"magFilter":9728,"minFilter":9728,"wrapS":33071,"wrapT":33071}],"images":[{"mimeType":"image/png","uri":"data:image/png;base64,"},{"mimeType":"image/png","uri":"data:image/png;base64,"},{"mimeType":"image/png","uri":"data:image/png;base64,"},{"mimeType":"image/png","uri":"data:image/png;base64,"},{"mimeType":"image/png","uri":"data:image/png;base64,"},{"mimeType":"image/png","uri":"data:image/png;base64,"},{"mimeType":"image/png","uri":"data:image/png;base64,"},{"mimeType":"image/png","uri":"data:image/png;base64,"},{"mimeType":"image/png","uri":"data:image/png;base64,"},{"mimeType":"image/png","uri":"data:image/png;base64,"},{"mimeType":"image/png","uri":"data:image/png;base64,"},{"mimeType":"image/png","uri":"data:image/png;base64,"}],"meshes":[{"primitives":[{"mode":4,"attributes":{"POSITION":0,"NORMAL":1,"TEXCOORD_0":2},"indices":3,"material":0}]},{"primitives":[{"mode":4,"attributes":{"POSITION":4,"NORMAL":5,"TEXCOORD_0":6},"indices":7,"material":1}]},{"primitives":[{"mode":4,"attributes":{"POSITION":8,"NORMAL":9,"TEXCOORD_0":10},"indices":11,"material":2}]},{"primitives":[{"mode":4,"attributes":{"POSITION":12,"NORMAL":13,"TEXCOORD_0":14},"indices":15,"material":3}]},{"primitives":[{"mode":4,"attributes":{"POSITION":16,"NORMAL":17,"TEXCOORD_0":18},"indices":19,"material":4}]},{"primitives":[{"mode":4,"attributes":{"POSITION":20,"NORMAL":21,"TEXCOORD_0":22},"indices":23,"material":5}]},{"primitives":[{"mode":4,"attributes":{"POSITION":24,"NORMAL":25,"TEXCOORD_0":26},"indices":27,"material":6}]},{"primitives":[{"mode":4,"attributes":{"POSITION":28,"NORMAL":29,"TEXCOORD_0":30},"indices":31,"material":7}]},{"primitives":[{"mode":4,"attributes":{"POSITION":32,"NORMAL":33,"TEXCOORD_0":34},"indices":35,"material":8}]},{"primitives":[{"mode":4,"attributes":{"POSITION":36,"NORMAL":37,"TEXCOORD_0":38},"indices":39,"material":9}]},{"primitives":[{"mode":4,"attributes":{"POSITION":40,"NORMAL":41,"TEXCOORD_0":42},"indices":43,"material":10}]},{"primitives":[{"mode":4,"attributes":{"POSITION":44,"NORMAL":45,"TEXCOORD_0":46},"indices":47,"material":11}]}]}