{"asset":{"version":"2.0","generator":"Blockbench 4.9.4 glTF exporter"},"scenes":[{"nodes":[10],"name":"blockbench_export"}],"scene":0,"nodes":[{"name":"backstagedoor","mesh":0},{"name":"backstagewall","mesh":1},{"name":"backstageshelf","mesh":2},{"name":"backstageshelfsupport","mesh":3},{"name":"backstagetable","mesh":4},{"name":"backstageceiling","mesh":5},{"name":"backstagesign","mesh":6},{"name":"backstagedoorknob","mesh":7},{"name":"backstagewires","mesh":8},{"name":"backstagefloor","mesh":9},{"children":[0,1,2,3,4,5,6,7,8,9]}],"bufferViews":[{"buffer":0,"byteOffset":0,"byteLength":288,"target":34962,"byteStride":12},{"buffer":0,"byteOffset":288,"byteLength":288,"target":34962,"byteStride":12},{"buffer":0,"byteOffset":576,"byteLength":192,"target":34962,"byteStride":8},{"buffer":0,"byteOffset":768,"byteLength":72,"target":34963},{"buffer":0,"byteOffset":840,"byteLength":576,"target":34962,"byteStride":12},{"buffer":0,"byteOffset":1416,"byteLength":576,"target":34962,"byteStride":12},{"buffer":0,"byteOffset":1992,"byteLength":384,"target":34962,"byteStride":8},{"buffer":0,"byteOffset":2376,"byteLength":144,"target":34963},{"buffer":0,"byteOffset":2520,"byteLength":1488,"target":34962,"byteStride":12},{"buffer":0,"byteOffset":4008,"byteLength":1488,"target":34962,"byteStride":12},{"buffer":0,"byteOffset":5496,"byteLength":992,"target":34962,"byteStride":8},{"buffer":0,"byteOffset":6488,"byteLength":372,"target":34963},{"buffer":0,"byteOffset":6860,"byteLength":2304,"target":34962,"byteStride":12},{"buffer":0,"byteOffset":9164,"byteLength":2304,"target":34962,"byteStride":12},{"buffer":0,"byteOffset":11468,"byteLength":1536,"target":34962,"byteStride":8},{"buffer":0,"byteOffset":13004,"byteLength":576,"target":34963},{"buffer":0,"byteOffset":13580,"byteLength":1056,"target":34962,"byteStride":12},{"buffer":0,"byteOffset":14636,"byteLength":1056,"target":34962,"byteStride":12},{"buffer":0,"byteOffset":15692,"byteLength":704,"target":34962,"byteStride":8},{"buffer":0,"byteOffset":16396,"byteLength":264,"target":34963},{"buffer":0,"byteOffset":16660,"byteLength":48,"target":34962,"byteStride":12},{"buffer":0,"byteOffset":16708,"byteLength":48,"target":34962,"byteStride":12},{"buffer":0,"byteOffset":16756,"byteLength":32,"target":34962,"byteStride":8},{"buffer":0,"byteOffset":16788,"byteLength":12,"target":34963},{"buffer":0,"byteOffset":16800,"byteLength":48,"target":34962,"byteStride":12},{"buffer":0,"byteOffset":16848,"byteLength":48,"target":34962,"byteStride":12},{"buffer":0,"byteOffset":16896,"byteLength":32,"target":34962,"byteStride":8},{"buffer":0,"byteOffset":16928,"byteLength":12,"target":34963},{"buffer":0,"byteOffset":16940,"byteLength":576,"target":34962,"byteStride":12},{"buffer":0,"byteOffset":17516,"byteLength":576,"target":34962,"byteStride":12},{"buffer":0,"byteOffset":18092,"byteLength":384,"target":34962,"byteStride":8},{"buffer":0,"byteOffset":18476,"byteLength":144,"target":34963},{"buffer":0,"byteOffset":18620,"byteLength":48,"target":34962,"byteStride":12},{"buffer":0,"byteOffset":18668,"byteLength":48,"target":34962,"byteStride":12},{"buffer":0,"byteOffset":18716,"byteLength":32,"target":34962,"byteStride":8},{"buffer":0,"byteOffset":18748,"byteLength":12,"target":34963},{"buffer":0,"byteOffset":18760,"byteLength":96,"target":34962,"byteStride":12},{"buffer":0,"byteOffset":18856,"byteLength":96,"target":34962,"byteStride":12},{"buffer":0,"byteOffset":18952,"byteLength":64,"target":34962,"byteStride":8},{"buffer":0,"byteOffset":19016,"byteLength":24,"target":34963}],"buffers":[{"byteLength":19040,"uri":"data:application/octet-stream;base64,"}],"accessors":[{"bufferView":0,"componentType":5126,"count":24,"max":[24.375,3.625,-11.5],"min":[22.375,0,-11.75],"type":"VEC3"},{"bufferView":1,"componentType":5126,"count":24,"max":[1,1,1],"min":[-1,-1,-1],"type":"VEC3"},{"bufferView":2,"componentType":5126,"count":24,"max":[0.5859375,0.9140625],"min":[0,0],"type":"VEC2"},{"bufferView":3,"componentType":5123,"count":36,"max":[23],"min":[0],"type":"SCALAR"},{"bufferView":4,"componentType":5126,"count":48,"max":[25.375,4.625,-11.5],"min":[16.8125,0,-17.5],"type":"VEC3"},{"bufferView":5,"componentType":5126,"count":48,"max":[1,0,1],"min":[-1,-1,-1],"type":"VEC3"},{"bufferView":6,"componentType":5126,"count":48,"max":[0.85546875,0.94140625],"min":[0,0],"type":"VEC2"},{"bufferView":7,"componentType":5123,"count":72,"max":[47],"min":[0],"type":"SCALAR"},{"bufferView":8,"componentType":5126,"count":124,"max":[25.125,3.9375,-12.25],"min":[18.9375,1.375,-17.5],"type":"VEC3"},{"bufferView":9,"componentType":5126,"count":124,"max":[1,1,1],"min":[-1,-1,-1],"type":"VEC3"},{"bufferView":10,"componentType":5126,"count":124,"max":[0.58203125,0.50390625],"min":[0,0],"type":"VEC2"},{"bufferView":11,"componentType":5123,"count":186,"max":[123],"min":[0],"type":"SCALAR"},{"bufferView":12,"componentType":5126,"count":192,"max":[25.125,3.8125,-12.375],"min":[19.125,0.75,-17.5],"type":"VEC3"},{"bufferView":13,"componentType":5126,"count":192,"max":[1,0.8087360858917236,1],"min":[-1,-0.8137334585189819,-1],"type":"VEC3"},{"bufferView":14,"componentType":5126,"count":192,"max":[0.734375,0.921875],"min":[0,0],"type":"VEC2"},{"bufferView":15,"componentType":5123,"count":288,"max":[191],"min":[0],"type":"SCALAR"},{"bufferView":16,"componentType":5126,"count":88,"max":[22.9375,1.5,-13.75],"min":[18.9375,1.1102230246251565e-16,-15.75],"type":"VEC3"},{"bufferView":17,"componentType":5126,"count":88,"max":[1,1,1],"min":[-1,-1,-1],"type":"VEC3"},{"bufferView":18,"componentType":5126,"count":88,"max":[0.50390625,0.34375],"min":[0,0],"type":"VEC2"},{"bufferView":19,"componentType":5123,"count":132,"max":[87],"min":[0],"type":"SCALAR"},{"bufferView":20,"componentType":5126,"count":4,"max":[25.125,4.625,-11.765625],"min":[17.0625,4.625,-17.484375],"type":"VEC3"},{"bufferView":21,"componentType":5126,"count":4,"max":[0,1,0],"min":[0,1,0],"type":"VEC3"},{"bufferView":22,"componentType":5126,"count":4,"max":[0.50390625,0.359375],"min":[0,0],"type":"VEC2"},{"bufferView":23,"componentType":5123,"count":6,"max":[3],"min":[0],"type":"SCALAR"},{"bufferView":24,"componentType":5126,"count":4,"max":[24.625,4.375,-11.765625],"min":[22.125,3.875,-11.765625],"type":"VEC3"},{"bufferView":25,"componentType":5126,"count":4,"max":[0,0,-1],"min":[0,0,-1],"type":"VEC3"},{"bufferView":26,"componentType":5126,"count":4,"max":[0.625,0.125],"min":[0,0],"type":"VEC2"},{"bufferView":27,"componentType":5123,"count":6,"max":[3],"min":[0],"type":"SCALAR"},{"bufferView":28,"componentType":5126,"count":48,"max":[22.875,2,-11.25],"min":[22.625,1.75,-12],"type":"VEC3"},{"bufferView":29,"componentType":5126,"count":48,"max":[1,1,1],"min":[-1,-1,-1],"type":"VEC3"},{"bufferView":30,"componentType":5126,"count":48,"max":[0.59375,0.59375],"min":[0,0],"type":"VEC2"},{"bufferView":31,"componentType":5123,"count":72,"max":[47],"min":[0],"type":"SCALAR"},{"bufferView":32,"componentType":5126,"count":4,"max":[21.875,4.625,-11.765625],"min":[17.3125,0,-11.765625],"type":"VEC3"},{"bufferView":33,"componentType":5126,"count":4,"max":[0,0,-1],"min":[0,0,-1],"type":"VEC3"},{"bufferView":34,"componentType":5126,"count":4,"max":[0.5703125,0.578125],"min":[0,0],"type":"VEC2"},{"bufferView":35,"componentType":5123,"count":6,"max":[3],"min":[0],"type":"SCALAR"},{"bufferView":36,"componentType":5126,"count":8,"max":[25.125,0,-11.5],"min":[17.0625,0,-17.5],"type":"VEC3"},{"bufferView":37,"componentType":5126,"count":8,"max":[0,1,0],"min":[0,1,0],"type":"VEC3"},{"bufferView":38,"componentType":5126,"count":8,"max":[0.50390625,0.37890625],"min":[0,0],"type":"VEC2"},{"bufferView":39,"componentType":5123,"count":12,"max":[7],"min":[0],"type":"SCALAR"}],"materials":[{"pbrMetallicRoughness":{"metallicFactor":0,"roughnessFactor":1,"baseColorTexture":{"index":0}},"alphaMode":"MASK","alphaCutoff":0.05,"doubleSided":true},{"pbrMetallicRoughness":{"metallicFactor":0,"roughnessFactor":1,"baseColorTexture":{"index":1}},"alphaMode":"MASK","alphaCutoff":0.05,"doubleSided":true},{"pbrMetallicRoughness":{"metallicFactor":0,"roughnessFactor":1,"baseColorTexture":{"index":2}},"alphaMode":"MASK","alphaCutoff":0.05,"doubleSided":true},{"pbrMetallicRoughness":{"metallicFactor":0,"roughnessFactor":1,"baseColorTexture":{"index":3}},"alphaMode":"MASK","alphaCutoff":0.05,"doubleSided":true},{"pbrMetallicRoughness":{"metallicFactor":0,"roughnessFactor":1,"baseColorTexture":{"index":4}},"alphaMode":"MASK","alphaCutoff":0.05,"doubleSided":true},{"pbrMetallicRoughness":{"metallicFactor":0,"roughnessFactor":1,"baseColorTexture":{"index":5}},"alphaMode":"MASK","alphaCutoff":0.05,"doubleSided":true},{"pbrMetallicRoughness":{"metallicFactor":0,"roughnessFactor":1,"baseColorTexture":{"index":6}},"alphaMode":"MASK","alphaCutoff":0.05,"doubleSided":true},{"pbrMetallicRoughness":{"metallicFactor":0,"roughnessFactor":1,"baseColorTexture":{"index":7}},"alphaMode":"MASK","alphaCutoff":0.05,"doubleSided":true},{"pbrMetallicRoughness":{"metallicFactor":0,"roughnessFactor":1,"baseColorTexture":{"index":8}},"alphaMode":"MASK","alphaCutoff":0.05,"doubleSided":true},{"pbrMetallicRoughness":{"metallicFactor":0,"roughnessFactor":1,"baseColorTexture":{"index":9}},"alphaMode":"MASK","alphaCutoff":0.05,"doubleSided":true}],"textures":[{"sampler":0,"source":0},{"sampler":1,"source":1},{"sampler":2,"source":2},{"sampler":3,"source":3},{"sampler":4,"source":4},{"sampler":5,"source":5},{"sampler":6,"source":6},{"sampler":7,"source":7},{"sampler":8,"source":8},{"sampler":9,"source":9}],"samplers":[{"magFilter":9728,"minFilter":9728,"wrapS":33071,"wrapT":33071},{"magFilter":9728,"minFilter":9728,"wrapS":33071,"wrapT":33071},{"magFilter":9728,"minFilter":9728,"wrapS":33071,"wrapT":33071},{"magFilter":9728,"minFilter":9728,"wrapS":33071,"wrapT":33071},{"magFilter":9728,"minFilter":9728,"wrapS":33071,"wrapT":33071},{"magFilter":9728,"minFilter":9728,"wrapS":33071,"wrapT":33071},{"magFilter":9728,"minFilter":9728,"wrapS":33071,"wrapT":33071},{"magFilter":9728,"minFilter":9728,"wrapS":33071,"wrapT":33071},{"magFilter":9728,"minFilter":9728,"wrapS":33071,"wrapT":33071},{"magFilter":9728,"minFilter":9728,"wrapS":33071,"wrapT":33071}],"images":[{"mimeType":"image/png","uri":"data:image/png;base64,"},{"mimeType":"image/png","uri":"data:image/png;base64,"},{"mimeType":"image/png","uri":"data:image/png;base64,"},{"mimeType":"image/png","uri":"data:image/png;base64,"},{"mimeType":"image/png","uri":"data:image/png;base64,"},{"mimeType":"image/png","uri":"data:image/png;base64,"},{"mimeType":"image/png","uri":"data:image/png;base64,"},{"mimeType":"image/png","uri":"data:image/png;base64,"},{"mimeType":"image/png","uri":"data:image/png;base64,"},{"mimeType":"image/png","uri":"data:image/png;base64,"}],"meshes":[{"primitives":[{"mode":4,"attributes":{"POSITION":0,"NORMAL":1,"TEXCOORD_0":2},"indices":3,"material":0}]},{"primitives":[{"mode":4,"attributes":{"POSITION":4,"NORMAL":5,"TEXCOORD_0":6},"indices":7,"material":1}]},{"primitives":[{"mode":4,"attributes":{"POSITION":8,"NORMAL":9,"TEXCOORD_0":10},"indices":11,"material":2}]},{"primitives":[{"mode":4,"attributes":{"POSITION":12,"NORMAL":13,"TEXCOORD_0":14},"indices":15,"material":3}]},{"primitives":[{"mode":4,"attributes":{"POSITION":16,"NORMAL":17,"TEXCOORD_0":18},"indices":19,"material":4}]},{"primitives":[{"mode":4,"attributes":{"POSITION":20,"NORMAL":21,"TEXCOORD_0":22},"indices":23,"material":5}]},{"primitives":[{"mode":4,"attributes":{"POSITION":24,"NORMAL":25,"TEXCOORD_0":26},"indices":27,"material":6}]},{"primitives":[{"mode":4,"attributes":{"POSITION":28,"NORMAL":29,"TEXCOORD_0":30},"indices":31,"material":7}]},{"primitives":[{"mode":4,"attributes":{"POSITION":32,"NORMAL":33,"TEXCOORD_0":34},"indices":35,"material":8}]},{"primitives":[{"mode":4,"attributes":{"POSITION":36,"NORMAL":37,"TEXCOORD_0":38},"indices":39,"material":9}]}]}