# Made in Blockbench 4.9.4
mtllib piratescoveleftcover.mtl

o piratescoverleftcurtain
v 16.8125 4.125 -9.625
v 16.8125 4.125 -11.5
v 16.8125 0.5000000000000016 -9.625
v 16.8125 0.5000000000000016 -11.5
v 16.395833333333332 4.125 -8.3125
v 16.395833333333332 0.5000000000000016 -8.3125
v 15.604166666666666 4.125 -7.625
v 15.604166666666666 0.5000000000000016 -7.625
v 14.83333125 4.125 -7.625
v 14.83333125 0.5000000000000016 -7.625
v 14.83333125 2.3125000000000018 -7.625
v 15.604166666666666 2.3125000000000018 -7.625
v 16.395833333333332 2.3125000000000018 -8.3125
v 16.8125 2.3125000000000018 -9.625
v 16.8125 2.3125000000000018 -11.5
vt 0.41028437500000003 0.546875
vt 0.41028437500000003 0.7734375000000001
vt 0.17590937500000003 0.7734375000000001
vt 0.17590937500000003 0.546875
vt 0.17590937500000003 0.546875
vt 0.17590937500000003 0.7734375000000001
vt 0.0037781249999999655 0.7734375000000001
vt 0.0037781249999999655 0.546875
vt 0.5546875 0.546875
vt 0.5546875 0.7734375000000001
vt 0.421875 0.7734375000000001
vt 0.421875 0.546875
vt 0.09375 0.0859375
vt 0.09375 0.3125000000000001
vt 0 0.3125000000000001
vt 0 0.0859375
vt 0 0.5390625
vt 0 0.3125000000000001
vt 0.09375 0.3125000000000001
vt 0.09375 0.5390625
vt 0.421875 1
vt 0.421875 0.7734375000000001
vt 0.5546875 0.7734375000000001
vt 0.5546875 1
vt 0.0037781249999999655 1
vt 0.0037781249999999655 0.7734375000000001
vt 0.17590937500000003 0.7734375000000001
vt 0.17590937500000003 1
vt 0.17590937500000003 1
vt 0.17590937500000003 0.7734375000000001
vt 0.41028437500000003 0.7734375000000001
vt 0.41028437500000003 1
vn 1 0 0
vn 0.9531242671445425 0 0.3025791324268397
vn 0.6556866554462434 0 0.7550331183926433
vn 0 0 1
vn 0 0 1
vn 0.6556866554462434 0 0.7550331183926433
vn 0.9531242671445425 0 0.3025791324268397
vn 1 0 0
usemtl m_17e52f30-f0a9-b1b4-6ee2-2f2ef02193fb
f 4/1/1 15/2/1 14/3/1 3/4/1
f 3/5/2 14/6/2 13/7/2 6/8/2
f 6/9/3 13/10/3 12/11/3 8/12/3
f 8/13/4 12/14/4 11/15/4 10/16/4
f 9/17/5 11/18/5 12/19/5 7/20/5
f 7/21/6 12/22/6 13/23/6 5/24/6
f 5/25/7 13/26/7 14/27/7 1/28/7
f 1/29/8 14/30/8 15/31/8 2/32/8