{"asset":{"version":"2.0","generator":"Blockbench 4.9.4 glTF exporter"},"scenes":[{"nodes":[15],"name":"blockbench_export"}],"scene":0,"nodes":[{"name":"westhallfloor","mesh":0},{"name":"westhallceiling","mesh":1},{"name":"westhalltv","mesh":2},{"name":"westhallsoda","mesh":3},{"rotation":[0,-0.3826834323650898,0,0.9238795325112867],"name":"westhallpaper","mesh":4},{"name":"westhallletspartyposter","mesh":5},{"name":"westhallhangingpaper","mesh":6},{"name":"westhallwall","mesh":7},{"name":"westhalllightrim","mesh":8},{"name":"westhalllightbulb","mesh":9},{"name":"westhallhangingdrawings","mesh":10},{"name":"westhallprop2","mesh":11},{"name":"westhallprop","mesh":12},{"name":"westhalltvscreen","mesh":13},{"name":"westhallprop3","mesh":14},{"children":[0,1,2,3,4,5,6,7,8,9,10,11,12,13,14]}],"bufferViews":[{"buffer":0,"byteOffset":0,"byteLength":96,"target":34962,"byteStride":12},{"buffer":0,"byteOffset":96,"byteLength":96,"target":34962,"byteStride":12},{"buffer":0,"byteOffset":192,"byteLength":64,"target":34962,"byteStride":8},{"buffer":0,"byteOffset":256,"byteLength":24,"target":34963},{"buffer":0,"byteOffset":280,"byteLength":48,"target":34962,"byteStride":12},{"buffer":0,"byteOffset":328,"byteLength":48,"target":34962,"byteStride":12},{"buffer":0,"byteOffset":376,"byteLength":32,"target":34962,"byteStride":8},{"buffer":0,"byteOffset":408,"byteLength":12,"target":34963},{"buffer":0,"byteOffset":420,"byteLength":2736,"target":34962,"byteStride":12},{"buffer":0,"byteOffset":3156,"byteLength":2736,"target":34962,"byteStride":12},{"buffer":0,"byteOffset":5892,"byteLength":1824,"target":34962,"byteStride":8},{"buffer":0,"byteOffset":7716,"byteLength":684,"target":34963},{"buffer":0,"byteOffset":8400,"byteLength":552,"target":34962,"byteStride":12},{"buffer":0,"byteOffset":8952,"byteLength":552,"target":34962,"byteStride":12},{"buffer":0,"byteOffset":9504,"byteLength":368,"target":34962,"byteStride":8},{"buffer":0,"byteOffset":9872,"byteLength":120,"target":34963},{"buffer":0,"byteOffset":9992,"byteLength":3840,"target":34962,"byteStride":12},{"buffer":0,"byteOffset":13832,"byteLength":3840,"target":34962,"byteStride":12},{"buffer":0,"byteOffset":17672,"byteLength":2560,"target":34962,"byteStride":8},{"buffer":0,"byteOffset":20232,"byteLength":780,"target":34963},{"buffer":0,"byteOffset":21012,"byteLength":48,"target":34962,"byteStride":12},{"buffer":0,"byteOffset":21060,"byteLength":48,"target":34962,"byteStride":12},{"buffer":0,"byteOffset":21108,"byteLength":32,"target":34962,"byteStride":8},{"buffer":0,"byteOffset":21140,"byteLength":12,"target":34963},{"buffer":0,"byteOffset":21152,"byteLength":720,"target":34962,"byteStride":12},{"buffer":0,"byteOffset":21872,"byteLength":720,"target":34962,"byteStride":12},{"buffer":0,"byteOffset":22592,"byteLength":480,"target":34962,"byteStride":8},{"buffer":0,"byteOffset":23072,"byteLength":180,"target":34963},{"buffer":0,"byteOffset":23252,"byteLength":672,"target":34962,"byteStride":12},{"buffer":0,"byteOffset":23924,"byteLength":672,"target":34962,"byteStride":12},{"buffer":0,"byteOffset":24596,"byteLength":448,"target":34962,"byteStride":8},{"buffer":0,"byteOffset":25044,"byteLength":168,"target":34963},{"buffer":0,"byteOffset":25212,"byteLength":768,"target":34962,"byteStride":12},{"buffer":0,"byteOffset":25980,"byteLength":768,"target":34962,"byteStride":12},{"buffer":0,"byteOffset":26748,"byteLength":512,"target":34962,"byteStride":8},{"buffer":0,"byteOffset":27260,"byteLength":192,"target":34963},{"buffer":0,"byteOffset":27452,"byteLength":672,"target":34962,"byteStride":12},{"buffer":0,"byteOffset":28124,"byteLength":672,"target":34962,"byteStride":12},{"buffer":0,"byteOffset":28796,"byteLength":448,"target":34962,"byteStride":8},{"buffer":0,"byteOffset":29244,"byteLength":144,"target":34963},{"buffer":0,"byteOffset":29388,"byteLength":480,"target":34962,"byteStride":12},{"buffer":0,"byteOffset":29868,"byteLength":480,"target":34962,"byteStride":12},{"buffer":0,"byteOffset":30348,"byteLength":320,"target":34962,"byteStride":8},{"buffer":0,"byteOffset":30668,"byteLength":120,"target":34963},{"buffer":0,"byteOffset":30788,"byteLength":96,"target":34962,"byteStride":12},{"buffer":0,"byteOffset":30884,"byteLength":96,"target":34962,"byteStride":12},{"buffer":0,"byteOffset":30980,"byteLength":64,"target":34962,"byteStride":8},{"buffer":0,"byteOffset":31044,"byteLength":24,"target":34963},{"buffer":0,"byteOffset":31068,"byteLength":240,"target":34962,"byteStride":12},{"buffer":0,"byteOffset":31308,"byteLength":240,"target":34962,"byteStride":12},{"buffer":0,"byteOffset":31548,"byteLength":160,"target":34962,"byteStride":8},{"buffer":0,"byteOffset":31708,"byteLength":60,"target":34963},{"buffer":0,"byteOffset":31768,"byteLength":144,"target":34962,"byteStride":12},{"buffer":0,"byteOffset":31912,"byteLength":144,"target":34962,"byteStride":12},{"buffer":0,"byteOffset":32056,"byteLength":96,"target":34962,"byteStride":8},{"buffer":0,"byteOffset":32152,"byteLength":36,"target":34963},{"buffer":0,"byteOffset":32188,"byteLength":192,"target":34962,"byteStride":12},{"buffer":0,"byteOffset":32380,"byteLength":192,"target":34962,"byteStride":12},{"buffer":0,"byteOffset":32572,"byteLength":128,"target":34962,"byteStride":8},{"buffer":0,"byteOffset":32700,"byteLength":48,"target":34963}],"buffers":[{"byteLength":32748,"uri":"data:application/octet-stream;base64,"}],"accessors":[{"bufferView":0,"componentType":5126,"count":8,"max":[9.8125,0,-2.25],"min":[-5.4375,0,-5.5],"type":"VEC3"},{"bufferView":1,"componentType":5126,"count":8,"max":[0,1,0],"min":[0,1,0],"type":"VEC3"},{"bufferView":2,"componentType":5126,"count":8,"max":[0.953125,0.20703125],"min":[0,0],"type":"VEC2"},{"bufferView":3,"componentType":5123,"count":12,"max":[7],"min":[0],"type":"SCALAR"},{"bufferView":4,"componentType":5126,"count":4,"max":[9.8125,4.625,-2.25],"min":[-5.4375,4.625,-5.25],"type":"VEC3"},{"bufferView":5,"componentType":5126,"count":4,"max":[0,1,0],"min":[0,1,0],"type":"VEC3"},{"bufferView":6,"componentType":5126,"count":4,"max":[0.953125,0.1875],"min":[0,0],"type":"VEC2"},{"bufferView":7,"componentType":5123,"count":6,"max":[3],"min":[0],"type":"SCALAR"},{"bufferView":8,"componentType":5126,"count":228,"max":[-1.1875,1.75,-4.25],"min":[-3.6875,0,-5.25],"type":"VEC3"},{"bufferView":9,"componentType":5126,"count":228,"max":[1,1,1],"min":[-1,0,-1],"type":"VEC3"},{"bufferView":10,"componentType":5126,"count":228,"max":[0.84375,0.859375],"min":[0,0],"type":"VEC2"},{"bufferView":11,"componentType":5123,"count":342,"max":[227],"min":[0],"type":"SCALAR"},{"bufferView":12,"componentType":5126,"count":46,"max":[-3.8244125843048096,0.5,-4.484375],"min":[-4.0505876541137695,0,-4.71875],"type":"VEC3"},{"bufferView":13,"componentType":5126,"count":46,"max":[1,1,1],"min":[-0.8563069105148315,0,-1],"type":"VEC3"},{"bufferView":14,"componentType":5126,"count":46,"max":[0.6875,0.8125],"min":[0,0],"type":"VEC2"},{"bufferView":15,"componentType":5123,"count":60,"max":[45],"min":[0],"type":"SCALAR"},{"bufferView":16,"componentType":5126,"count":320,"max":[-1.0614694356918335,0.24080589413642883,1.3848316669464111],"min":[-7.1923017501831055,-0.008851493708789349,-2.800812244415283],"type":"VEC3"},{"bufferView":17,"componentType":5126,"count":320,"max":[0.9754787087440491,1,0.9528573751449585],"min":[-0.9754787087440491,-0.888049840927124,-0.9528573751449585],"type":"VEC3"},{"bufferView":18,"componentType":5126,"count":320,"max":[0.515625,0.515625],"min":[0,0],"type":"VEC2"},{"bufferView":19,"componentType":5123,"count":390,"max":[319],"min":[0],"type":"SCALAR"},{"bufferView":20,"componentType":5126,"count":4,"max":[-5.421875,3.46875,-3.5],"min":[-5.421875,1.46875,-5],"type":"VEC3"},{"bufferView":21,"componentType":5126,"count":4,"max":[1,0,0],"min":[1,0,0],"type":"VEC3"},{"bufferView":22,"componentType":5126,"count":4,"max":[0.75,1],"min":[0,0],"type":"VEC2"},{"bufferView":23,"componentType":5123,"count":6,"max":[3],"min":[0],"type":"SCALAR"},{"bufferView":24,"componentType":5126,"count":60,"max":[-1.9375,3.875,-2.3125],"min":[-5.421875,1.78125,-5.1875],"type":"VEC3"},{"bufferView":25,"componentType":5126,"count":60,"max":[1,0.08304548263549805,0],"min":[-0.24253562092781067,0,-1],"type":"VEC3"},{"bufferView":26,"componentType":5126,"count":60,"max":[0.703125,0.796875],"min":[0,0],"type":"VEC2"},{"bufferView":27,"componentType":5123,"count":90,"max":[59],"min":[0],"type":"SCALAR"},{"bufferView":28,"componentType":5126,"count":56,"max":[9.8125,4.625,-2],"min":[-5.4375,0,-5.5],"type":"VEC3"},{"bufferView":29,"componentType":5126,"count":56,"max":[1,0,1],"min":[-1,-1,-1],"type":"VEC3"},{"bufferView":30,"componentType":5126,"count":56,"max":[0.478515625,0.583984375],"min":[0,0],"type":"VEC2"},{"bufferView":31,"componentType":5123,"count":84,"max":[55],"min":[0],"type":"SCALAR"},{"bufferView":32,"componentType":5126,"count":64,"max":[9.428346633911133,4.625,-3.196652889251709],"min":[8.321653366088867,4.59375,-4.303347110748291],"type":"VEC3"},{"bufferView":33,"componentType":5126,"count":64,"max":[1,0,1],"min":[-1,-1,-1],"type":"VEC3"},{"bufferView":34,"componentType":5126,"count":64,"max":[0.78125,0.5625],"min":[0.004575000144541264,0],"type":"VEC2"},{"bufferView":35,"componentType":5123,"count":96,"max":[63],"min":[0],"type":"SCALAR"},{"bufferView":36,"componentType":5126,"count":56,"max":[9.375,4.59375,-3.25],"min":[8.375,4.40625,-4.25],"type":"VEC3"},{"bufferView":37,"componentType":5126,"count":56,"max":[0.6711449027061462,-0.7413262128829956,0.6711449027061462],"min":[-0.6711449027061462,-0.9881502985954285,-0.6711449027061462],"type":"VEC3"},{"bufferView":38,"componentType":5126,"count":56,"max":[0.9624688625335693,0.625],"min":[0.012637877836823463,0.009826183319091797],"type":"VEC2"},{"bufferView":39,"componentType":5123,"count":72,"max":[55],"min":[0],"type":"SCALAR"},{"bufferView":40,"componentType":5126,"count":40,"max":[1.6875,3.375,-5.0625],"min":[-1.25,1.4375,-5.1875],"type":"VEC3"},{"bufferView":41,"componentType":5126,"count":40,"max":[0,0,-0.9701424837112427],"min":[-0.24253562092781067,0,-1],"type":"VEC3"},{"bufferView":42,"componentType":5126,"count":40,"max":[0.546875,0.59375],"min":[0,0],"type":"VEC2"},{"bufferView":43,"componentType":5123,"count":60,"max":[39],"min":[0],"type":"SCALAR"},{"bufferView":44,"componentType":5126,"count":8,"max":[9.875,4.625,-2.375],"min":[-5.4375,3.5,-5.125],"type":"VEC3"},{"bufferView":45,"componentType":5126,"count":8,"max":[0,0,1],"min":[0,0,1],"type":"VEC3"},{"bufferView":46,"componentType":5126,"count":8,"max":[0.95703125,0.14453125],"min":[0,0],"type":"VEC2"},{"bufferView":47,"componentType":5123,"count":12,"max":[7],"min":[0],"type":"SCALAR"},{"bufferView":48,"componentType":5126,"count":20,"max":[7.8125,4.625,-2.25],"min":[-5.375,3.5,-5.25],"type":"VEC3"},{"bufferView":49,"componentType":5126,"count":20,"max":[0,0,1],"min":[-1,0,0],"type":"VEC3"},{"bufferView":50,"componentType":5126,"count":20,"max":[0.5078125,0.4375],"min":[0,0],"type":"VEC2"},{"bufferView":51,"componentType":5123,"count":30,"max":[19],"min":[0],"type":"SCALAR"},{"bufferView":52,"componentType":5126,"count":12,"max":[-1.3125,1.6875,-4.25],"min":[-3.5625,0.125,-4.5],"type":"VEC3"},{"bufferView":53,"componentType":5126,"count":12,"max":[0,0,1],"min":[0,0,1],"type":"VEC3"},{"bufferView":54,"componentType":5126,"count":12,"max":[0.96875,0.90625],"min":[0,0],"type":"VEC2"},{"bufferView":55,"componentType":5123,"count":18,"max":[11],"min":[0],"type":"SCALAR"},{"bufferView":56,"componentType":5126,"count":16,"max":[9.5625,4.4375,-2.296875],"min":[2.25,1.4375,-5.234375],"type":"VEC3"},{"bufferView":57,"componentType":5126,"count":16,"max":[0,0,1],"min":[0,0,1],"type":"VEC3"},{"bufferView":58,"componentType":5126,"count":16,"max":[0.5078125,0.3828125],"min":[0,0],"type":"VEC2"},{"bufferView":59,"componentType":5123,"count":24,"max":[15],"min":[0],"type":"SCALAR"}],"materials":[{"pbrMetallicRoughness":{"metallicFactor":0,"roughnessFactor":1,"baseColorTexture":{"index":0}},"alphaMode":"MASK","alphaCutoff":0.05,"doubleSided":true},{"pbrMetallicRoughness":{"metallicFactor":0,"roughnessFactor":1,"baseColorTexture":{"index":1}},"alphaMode":"MASK","alphaCutoff":0.05,"doubleSided":true},{"pbrMetallicRoughness":{"metallicFactor":0,"roughnessFactor":1,"baseColorTexture":{"index":2}},"alphaMode":"MASK","alphaCutoff":0.05,"doubleSided":true},{"pbrMetallicRoughness":{"metallicFactor":0,"roughnessFactor":1,"baseColorTexture":{"index":3}},"alphaMode":"MASK","alphaCutoff":0.05,"doubleSided":true},{"pbrMetallicRoughness":{"metallicFactor":0,"roughnessFactor":1,"baseColorTexture":{"index":4}},"alphaMode":"MASK","alphaCutoff":0.05,"doubleSided":true},{"pbrMetallicRoughness":{"metallicFactor":0,"roughnessFactor":1,"baseColorTexture":{"index":5}},"alphaMode":"MASK","alphaCutoff":0.05,"doubleSided":true},{"pbrMetallicRoughness":{"metallicFactor":0,"roughnessFactor":1,"baseColorTexture":{"index":6}},"alphaMode":"MASK","alphaCutoff":0.05,"doubleSided":true},{"pbrMetallicRoughness":{"metallicFactor":0,"roughnessFactor":1,"baseColorTexture":{"index":7}},"alphaMode":"MASK","alphaCutoff":0.05,"doubleSided":true},{"pbrMetallicRoughness":{"metallicFactor":0,"roughnessFactor":1,"baseColorTexture":{"index":8}},"alphaMode":"MASK","alphaCutoff":0.05,"doubleSided":true},{"pbrMetallicRoughness":{"metallicFactor":0,"roughnessFactor":1,"baseColorTexture":{"index":9}},"alphaMode":"MASK","alphaCutoff":0.05,"doubleSided":true},{"pbrMetallicRoughness":{"metallicFactor":0,"roughnessFactor":1,"baseColorTexture":{"index":10}},"alphaMode":"MASK","alphaCutoff":0.05,"doubleSided":true},{"pbrMetallicRoughness":{"metallicFactor":0,"roughnessFactor":1,"baseColorTexture":{"index":11}},"alphaMode":"MASK","alphaCutoff":0.05,"doubleSided":true},{"pbrMetallicRoughness":{"metallicFactor":0,"roughnessFactor":1,"baseColorTexture":{"index":12}},"alphaMode":"MASK","alphaCutoff":0.05,"doubleSided":true},{"pbrMetallicRoughness":{"metallicFactor":0,"roughnessFactor":1,"baseColorTexture":{"index":13}},"alphaMode":"MASK","alphaCutoff":0.05,"doubleSided":true},{"pbrMetallicRoughness":{"metallicFactor":0,"roughnessFactor":1,"baseColorTexture":{"index":14}},"alphaMode":"MASK","alphaCutoff":0.05,"doubleSided":true}],"textures":[{"sampler":0,"source":0},{"sampler":1,"source":1},{"sampler":2,"source":2},{"sampler":3,"source":3},{"sampler":4,"source":4},{"sampler":5,"source":5},{"sampler":6,"source":6},{"sampler":7,"source":7},{"sampler":8,"source":8},{"sampler":9,"source":9},{"sampler":10,"source":10},{"sampler":11,"source":11},{"sampler":12,"source":12},{"sampler":13,"source":13},{"sampler":14,"source":14}],"samplers":[{"magFilter":9728,"minFilter":9728,"wrapS":33071,"wrapT":33071},{"magFilter":9728,"minFilter":9728,"wrapS":33071,"wrapT":33071},{"magFilter":9728,"minFilter":9728,"wrapS":33071,"wrapT":33071},{"magFilter":9728,"minFilter":9728,"wrapS":33071,"wrapT":33071},{"magFilter":9728,"minFilter":9728,"wrapS":33071,"wrapT":33071},{"magFilter":9728,"minFilter":9728,"wrapS":33071,"wrapT":33071},{"magFilter":9728,"minFilter":9728,"wrapS":33071,"wrapT":33071},{"magFilter":9728,"minFilter":9728,"wrapS":33071,"wrapT":33071},{"magFilter":9728,"minFilter":9728,"wrapS":33071,"wrapT":33071},{"magFilter":9728,"minFilter":9728,"wrapS":33071,"wrapT":33071},{"magFilter":9728,"minFilter":9728,"wrapS":33071,"wrapT":33071},{"magFilter":9728,"minFilter":9728,"wrapS":33071,"wrapT":33071},{"magFilter":9728,"minFilter":9728,"wrapS":33071,"wrapT":33071},{"magFilter":9728,"minFilter":9728,"wrapS":33071,"wrapT":33071},{"magFilter":9728,"minFilter":9728,"wrapS":33071,"wrapT":33071}],"images":[{"mimeType":"image/png","uri":"data:image/png;base64,"},{"mimeType":"image/png","uri":"data:image/png;base64,"},{"mimeType":"image/png","uri":"data:image/png;base64,"},{"mimeType":"image/png","uri":"data:image/png;base64,"},{"mimeType":"image/png","uri":"data:image/png;base64,"},{"mimeType":"image/png","uri":"data:image/png;base64,"},{"mimeType":"image/png","uri":"data:image/png;base64,"},{"mimeType":"image/png","uri":"data:image/png;base64,"},{"mimeType":"image/png","uri":"data:image/png;base64,"},{"mimeType":"image/png","uri":"data:image/png;base64,"},{"mimeType":"image/png","uri":"data:image/png;base64,"},{"mimeType":"image/png","uri":"data:image/png;base64,"},{"mimeType":"image/png","uri":"data:image/png;base64,"},{"mimeType":"image/png","uri":"data:image/png;base64,"},{"mimeType":"image/png","uri":"data:image/png;base64,"}],"meshes":[{"primitives":[{"mode":4,"attributes":{"POSITION":0,"NORMAL":1,"TEXCOORD_0":2},"indices":3,"material":0}]},{"primitives":[{"mode":4,"attributes":{"POSITION":4,"NORMAL":5,"TEXCOORD_0":6},"indices":7,"material":1}]},{"primitives":[{"mode":4,"attributes":{"POSITION":8,"NORMAL":9,"TEXCOORD_0":10},"indices":11,"material":2}]},{"primitives":[{"mode":4,"attributes":{"POSITION":12,"NORMAL":13,"TEXCOORD_0":14},"indices":15,"material":3}]},{"primitives":[{"mode":4,"attributes":{"POSITION":16,"NORMAL":17,"TEXCOORD_0":18},"indices":19,"material":4}]},{"primitives":[{"mode":4,"attributes":{"POSITION":20,"NORMAL":21,"TEXCOORD_0":22},"indices":23,"material":5}]},{"primitives":[{"mode":4,"attributes":{"POSITION":24,"NORMAL":25,"TEXCOORD_0":26},"indices":27,"material":6}]},{"primitives":[{"mode":4,"attributes":{"POSITION":28,"NORMAL":29,"TEXCOORD_0":30},"indices":31,"material":7}]},{"primitives":[{"mode":4,"attributes":{"POSITION":32,"NORMAL":33,"TEXCOORD_0":34},"indices":35,"material":8}]},{"primitives":[{"mode":4,"attributes":{"POSITION":36,"NORMAL":37,"TEXCOORD_0":38},"indices":39,"material":9}]},{"primitives":[{"mode":4,"attributes":{"POSITION":40,"NORMAL":41,"TEXCOORD_0":42},"indices":43,"material":10}]},{"primitives":[{"mode":4,"attributes":{"POSITION":44,"NORMAL":45,"TEXCOORD_0":46},"indices":47,"material":11}]},{"primitives":[{"mode":4,"attributes":{"POSITION":48,"NORMAL":49,"TEXCOORD_0":50},"indices":51,"material":12}]},{"primitives":[{"mode":4,"attributes":{"POSITION":52,"NORMAL":53,"TEXCOORD_0":54},"indices":55,"material":13}]},{"primitives":[{"mode":4,"attributes":{"POSITION":56,"NORMAL":57,"TEXCOORD_0":58},"indices":59,"material":14}]}]}