{"asset":{"version":"2.0","generator":"Blockbench 4.9.4 glTF exporter"},"scenes":[{"nodes":[10],"name":"blockbench_export"}],"scene":0,"nodes":[{"name":"diningareawall","mesh":0},{"name":"diningareafloor","mesh":1},{"name":"diningareaceiling","mesh":2},{"name":"diningareaprop","mesh":3},{"translation":[0.4375,0,3.6875],"name":"diningareatablecloth","mesh":4},{"rotation":[0,-1,0,6.123233995736766e-17],"translation":[-6.5625,0,10.3125],"name":"diningareachair","mesh":5},{"translation":[-6.5625,0,10.3125],"name":"diningareatableleg","mesh":6},{"name":"diningareapartyhat","mesh":7},{"name":"diningareaprop3","mesh":8},{"name":"diningareaprop2","mesh":9},{"children":[0,1,2,3,4,5,6,7,8,9]}],"bufferViews":[{"buffer":0,"byteOffset":0,"byteLength":720,"target":34962,"byteStride":12},{"buffer":0,"byteOffset":720,"byteLength":720,"target":34962,"byteStride":12},{"buffer":0,"byteOffset":1440,"byteLength":480,"target":34962,"byteStride":8},{"buffer":0,"byteOffset":1920,"byteLength":180,"target":34963},{"buffer":0,"byteOffset":2100,"byteLength":48,"target":34962,"byteStride":12},{"buffer":0,"byteOffset":2148,"byteLength":48,"target":34962,"byteStride":12},{"buffer":0,"byteOffset":2196,"byteLength":32,"target":34962,"byteStride":8},{"buffer":0,"byteOffset":2228,"byteLength":12,"target":34963},{"buffer":0,"byteOffset":2240,"byteLength":48,"target":34962,"byteStride":12},{"buffer":0,"byteOffset":2288,"byteLength":48,"target":34962,"byteStride":12},{"buffer":0,"byteOffset":2336,"byteLength":32,"target":34962,"byteStride":8},{"buffer":0,"byteOffset":2368,"byteLength":12,"target":34963},{"buffer":0,"byteOffset":2380,"byteLength":1440,"target":34962,"byteStride":12},{"buffer":0,"byteOffset":3820,"byteLength":1440,"target":34962,"byteStride":12},{"buffer":0,"byteOffset":5260,"byteLength":960,"target":34962,"byteStride":8},{"buffer":0,"byteOffset":6220,"byteLength":360,"target":34963},{"buffer":0,"byteOffset":6580,"byteLength":960,"target":34962,"byteStride":12},{"buffer":0,"byteOffset":7540,"byteLength":960,"target":34962,"byteStride":12},{"buffer":0,"byteOffset":8500,"byteLength":640,"target":34962,"byteStride":8},{"buffer":0,"byteOffset":9140,"byteLength":240,"target":34963},{"buffer":0,"byteOffset":9380,"byteLength":78336,"target":34962,"byteStride":12},{"buffer":0,"byteOffset":87716,"byteLength":78336,"target":34962,"byteStride":12},{"buffer":0,"byteOffset":166052,"byteLength":52224,"target":34962,"byteStride":8},{"buffer":0,"byteOffset":218276,"byteLength":19584,"target":34963},{"buffer":0,"byteOffset":237860,"byteLength":3840,"target":34962,"byteStride":12},{"buffer":0,"byteOffset":241700,"byteLength":3840,"target":34962,"byteStride":12},{"buffer":0,"byteOffset":245540,"byteLength":2560,"target":34962,"byteStride":8},{"buffer":0,"byteOffset":248100,"byteLength":960,"target":34963},{"buffer":0,"byteOffset":249060,"byteLength":18432,"target":34962,"byteStride":12},{"buffer":0,"byteOffset":267492,"byteLength":18432,"target":34962,"byteStride":12},{"buffer":0,"byteOffset":285924,"byteLength":12288,"target":34962,"byteStride":8},{"buffer":0,"byteOffset":298212,"byteLength":3072,"target":34963},{"buffer":0,"byteOffset":301284,"byteLength":576,"target":34962,"byteStride":12},{"buffer":0,"byteOffset":301860,"byteLength":576,"target":34962,"byteStride":12},{"buffer":0,"byteOffset":302436,"byteLength":384,"target":34962,"byteStride":8},{"buffer":0,"byteOffset":302820,"byteLength":144,"target":34963},{"buffer":0,"byteOffset":302964,"byteLength":96,"target":34962,"byteStride":12},{"buffer":0,"byteOffset":303060,"byteLength":96,"target":34962,"byteStride":12},{"buffer":0,"byteOffset":303156,"byteLength":64,"target":34962,"byteStride":8},{"buffer":0,"byteOffset":303220,"byteLength":24,"target":34963}],"buffers":[{"byteLength":303244,"uri":"data:application/octet-stream;base64,"}],"accessors":[{"bufferView":0,"componentType":5126,"count":60,"max":[25.3125,4.625,11.5],"min":[9.8125,0,-11.5],"type":"VEC3"},{"bufferView":1,"componentType":5126,"count":60,"max":[1,0,0],"min":[-1,0,-1],"type":"VEC3"},{"bufferView":2,"componentType":5126,"count":60,"max":[0.81640625,0.875],"min":[0,0],"type":"VEC2"},{"bufferView":3,"componentType":5123,"count":90,"max":[59],"min":[0],"type":"SCALAR"},{"bufferView":4,"componentType":5126,"count":4,"max":[26.25,0,11.5],"min":[9.8125,0,-11.5],"type":"VEC3"},{"bufferView":5,"componentType":5126,"count":4,"max":[0,1,0],"min":[0,1,0],"type":"VEC3"},{"bufferView":6,"componentType":5126,"count":4,"max":[0.513671875,0.71875],"min":[0,0],"type":"VEC2"},{"bufferView":7,"componentType":5123,"count":6,"max":[3],"min":[0],"type":"SCALAR"},{"bufferView":8,"componentType":5126,"count":4,"max":[25.3125,4.625,11.5],"min":[9.8125,4.625,-11.5],"type":"VEC3"},{"bufferView":9,"componentType":5126,"count":4,"max":[0,1,0],"min":[0,1,0],"type":"VEC3"},{"bufferView":10,"componentType":5126,"count":4,"max":[0.484375,0.71875],"min":[0,0],"type":"VEC2"},{"bufferView":11,"componentType":5123,"count":6,"max":[3],"min":[0],"type":"SCALAR"},{"bufferView":12,"componentType":5126,"count":120,"max":[25.25,4.625,11.5],"min":[9.875,3.5,-11.5],"type":"VEC3"},{"bufferView":13,"componentType":5126,"count":120,"max":[1,0,1],"min":[-1,0,-1],"type":"VEC3"},{"bufferView":14,"componentType":5126,"count":120,"max":[0.640625,0.58984375],"min":[0,0],"type":"VEC2"},{"bufferView":15,"componentType":5123,"count":180,"max":[119],"min":[0],"type":"SCALAR"},{"bufferView":16,"componentType":5126,"count":80,"max":[23.125,1.5,0.875],"min":[11.125,0.75,-8.375],"type":"VEC3"},{"bufferView":17,"componentType":5126,"count":80,"max":[1,1,1],"min":[-1,0,-1],"type":"VEC3"},{"bufferView":18,"componentType":5126,"count":80,"max":[0.66796875,0.63671875],"min":[0,0],"type":"VEC2"},{"bufferView":19,"componentType":5123,"count":120,"max":[79],"min":[0],"type":"SCALAR"},{"bufferView":20,"componentType":5126,"count":6528,"max":[-18.3125,2.1875,16],"min":[-30,0,4.75],"type":"VEC3"},{"bufferView":21,"componentType":5126,"count":6528,"max":[1,1,1],"min":[-1,-1,-1],"type":"VEC3"},{"bufferView":22,"componentType":5126,"count":6528,"max":[0.560546875,0.5546875],"min":[0,0],"type":"VEC2"},{"bufferView":23,"componentType":5123,"count":9792,"max":[6527],"min":[0],"type":"SCALAR"},{"bufferView":24,"componentType":5126,"count":320,"max":[30.0625,1.4375,-5.8125],"min":[18.1875,0,-14.9375],"type":"VEC3"},{"bufferView":25,"componentType":5126,"count":320,"max":[1,1,1],"min":[-1,0,-1],"type":"VEC3"},{"bufferView":26,"componentType":5126,"count":320,"max":[0.53125,0.5546875],"min":[0,0],"type":"VEC2"},{"bufferView":27,"componentType":5123,"count":480,"max":[319],"min":[0],"type":"SCALAR"},{"bufferView":28,"componentType":5126,"count":1536,"max":[23.1875,2.25,4.4375],"min":[12,1.5,-4.5625],"type":"VEC3"},{"bufferView":29,"componentType":5126,"count":1536,"max":[0.9486833214759827,0.3162277638912201,0.9486833214759827],"min":[-0.9486833214759827,-1,-0.9486833214759827],"type":"VEC3"},{"bufferView":30,"componentType":5126,"count":1536,"max":[0.57421875,0.6123326420783997],"min":[0,0],"type":"VEC2"},{"bufferView":31,"componentType":5123,"count":1536,"max":[1535],"min":[0],"type":"SCALAR"},{"bufferView":32,"componentType":5126,"count":48,"max":[25.25,4.4375,11.4375],"min":[9.875,1.5,-11.4375],"type":"VEC3"},{"bufferView":33,"componentType":5126,"count":48,"max":[1,0,1],"min":[-1,0,-1],"type":"VEC3"},{"bufferView":34,"componentType":5126,"count":48,"max":[0.765625,0.7734375],"min":[0,0],"type":"VEC2"},{"bufferView":35,"componentType":5123,"count":72,"max":[47],"min":[0],"type":"SCALAR"},{"bufferView":36,"componentType":5126,"count":8,"max":[16.09375,4.625,11.515625],"min":[16.09375,3.5,-11.515625],"type":"VEC3"},{"bufferView":37,"componentType":5126,"count":8,"max":[-1,0,0],"min":[-1,0,0],"type":"VEC3"},{"bufferView":38,"componentType":5126,"count":8,"max":[0.95703125,0.14453125],"min":[0,0],"type":"VEC2"},{"bufferView":39,"componentType":5123,"count":12,"max":[7],"min":[0],"type":"SCALAR"}],"materials":[{"pbrMetallicRoughness":{"metallicFactor":0,"roughnessFactor":1,"baseColorTexture":{"index":0}},"alphaMode":"MASK","alphaCutoff":0.05,"doubleSided":true},{"pbrMetallicRoughness":{"metallicFactor":0,"roughnessFactor":1,"baseColorTexture":{"index":1}},"alphaMode":"MASK","alphaCutoff":0.05,"doubleSided":true},{"pbrMetallicRoughness":{"metallicFactor":0,"roughnessFactor":1,"baseColorTexture":{"index":2}},"alphaMode":"MASK","alphaCutoff":0.05,"doubleSided":true},{"pbrMetallicRoughness":{"metallicFactor":0,"roughnessFactor":1,"baseColorTexture":{"index":3}},"alphaMode":"MASK","alphaCutoff":0.05,"doubleSided":true},{"pbrMetallicRoughness":{"metallicFactor":0,"roughnessFactor":1,"baseColorTexture":{"index":4}},"alphaMode":"MASK","alphaCutoff":0.05,"doubleSided":true},{"pbrMetallicRoughness":{"metallicFactor":0,"roughnessFactor":1,"baseColorTexture":{"index":5}},"alphaMode":"MASK","alphaCutoff":0.05,"doubleSided":true},{"pbrMetallicRoughness":{"metallicFactor":0,"roughnessFactor":1,"baseColorTexture":{"index":6}},"alphaMode":"MASK","alphaCutoff":0.05,"doubleSided":true},{"pbrMetallicRoughness":{"metallicFactor":0,"roughnessFactor":1,"baseColorTexture":{"index":7}},"alphaMode":"MASK","alphaCutoff":0.05,"doubleSided":true},{"pbrMetallicRoughness":{"metallicFactor":0,"roughnessFactor":1,"baseColorTexture":{"index":8}},"alphaMode":"MASK","alphaCutoff":0.05,"doubleSided":true},{"pbrMetallicRoughness":{"metallicFactor":0,"roughnessFactor":1,"baseColorTexture":{"index":9}},"alphaMode":"MASK","alphaCutoff":0.05,"doubleSided":true}],"textures":[{"sampler":0,"source":0},{"sampler":1,"source":1},{"sampler":2,"source":2},{"sampler":3,"source":3},{"sampler":4,"source":4},{"sampler":5,"source":5},{"sampler":6,"source":6},{"sampler":7,"source":7},{"sampler":8,"source":8},{"sampler":9,"source":9}],"samplers":[{"magFilter":9728,"minFilter":9728,"wrapS":33071,"wrapT":33071},{"magFilter":9728,"minFilter":9728,"wrapS":33071,"wrapT":33071},{"magFilter":9728,"minFilter":9728,"wrapS":33071,"wrapT":33071},{"magFilter":9728,"minFilter":9728,"wrapS":33071,"wrapT":33071},{"magFilter":9728,"minFilter":9728,"wrapS":33071,"wrapT":33071},{"magFilter":9728,"minFilter":9728,"wrapS":33071,"wrapT":33071},{"magFilter":9728,"minFilter":9728,"wrapS":33071,"wrapT":33071},{"magFilter":9728,"minFilter":9728,"wrapS":33071,"wrapT":33071},{"magFilter":9728,"minFilter":9728,"wrapS":33071,"wrapT":33071},{"magFilter":9728,"minFilter":9728,"wrapS":33071,"wrapT":33071}],"images":[{"mimeType":"image/png","uri":"data:image/png;base64,"},{"mimeType":"image/png","uri":"data:image/png;base64,"},{"mimeType":"image/png","uri":"data:image/png;base64,"},{"mimeType":"image/png","uri":"data:image/png;base64,"},{"mimeType":"image/png","uri":"data:image/png;base64,"},{"mimeType":"image/png","uri":"data:image/png;base64,"},{"mimeType":"image/png","uri":"data:image/png;base64,"},{"mimeType":"image/png","uri":"data:image/png;base64,"},{"mimeType":"image/png","uri":"data:image/png;base64,"},{"mimeType":"image/png","uri":"data:image/png;base64,"}],"meshes":[{"primitives":[{"mode":4,"attributes":{"POSITION":0,"NORMAL":1,"TEXCOORD_0":2},"indices":3,"material":0}]},{"primitives":[{"mode":4,"attributes":{"POSITION":4,"NORMAL":5,"TEXCOORD_0":6},"indices":7,"material":1}]},{"primitives":[{"mode":4,"attributes":{"POSITION":8,"NORMAL":9,"TEXCOORD_0":10},"indices":11,"material":2}]},{"primitives":[{"mode":4,"attributes":{"POSITION":12,"NORMAL":13,"TEXCOORD_0":14},"indices":15,"material":3}]},{"primitives":[{"mode":4,"attributes":{"POSITION":16,"NORMAL":17,"TEXCOORD_0":18},"indices":19,"material":4}]},{"primitives":[{"mode":4,"attributes":{"POSITION":20,"NORMAL":21,"TEXCOORD_0":22},"indices":23,"material":5}]},{"primitives":[{"mode":4,"attributes":{"POSITION":24,"NORMAL":25,"TEXCOORD_0":26},"indices":27,"material":6}]},{"primitives":[{"mode":4,"attributes":{"POSITION":28,"NORMAL":29,"TEXCOORD_0":30},"indices":31,"material":7}]},{"primitives":[{"mode":4,"attributes":{"POSITION":32,"NORMAL":33,"TEXCOORD_0":34},"indices":35,"material":8}]},{"primitives":[{"mode":4,"attributes":{"POSITION":36,"NORMAL":37,"TEXCOORD_0":38},"indices":39,"material":9}]}]}