{"asset":{"version":"2.0","generator":"Blockbench 4.9.4 glTF exporter"},"scenes":[{"nodes":[6],"name":"blockbench_export"}],"scene":0,"nodes":[{"name":"mainstagestage","mesh":0},{"name":"mainstagewall","mesh":1},{"name":"mainstageceiling","mesh":2},{"name":"mainstageprop","mesh":3},{"rotation":[0,-0.19509032201612825,0,0.9807852804032304],"translation":[0,0,0.5],"name":"mainstagespeaker","mesh":4},{"name":"bone","children":[0,1,2,3,4]},{"children":[5]}],"bufferViews":[{"buffer":0,"byteOffset":0,"byteLength":288,"target":34962,"byteStride":12},{"buffer":0,"byteOffset":288,"byteLength":288,"target":34962,"byteStride":12},{"buffer":0,"byteOffset":576,"byteLength":192,"target":34962,"byteStride":8},{"buffer":0,"byteOffset":768,"byteLength":72,"target":34963},{"buffer":0,"byteOffset":840,"byteLength":144,"target":34962,"byteStride":12},{"buffer":0,"byteOffset":984,"byteLength":144,"target":34962,"byteStride":12},{"buffer":0,"byteOffset":1128,"byteLength":96,"target":34962,"byteStride":8},{"buffer":0,"byteOffset":1224,"byteLength":36,"target":34963},{"buffer":0,"byteOffset":1260,"byteLength":48,"target":34962,"byteStride":12},{"buffer":0,"byteOffset":1308,"byteLength":48,"target":34962,"byteStride":12},{"buffer":0,"byteOffset":1356,"byteLength":32,"target":34962,"byteStride":8},{"buffer":0,"byteOffset":1388,"byteLength":12,"target":34963},{"buffer":0,"byteOffset":1400,"byteLength":720,"target":34962,"byteStride":12},{"buffer":0,"byteOffset":2120,"byteLength":720,"target":34962,"byteStride":12},{"buffer":0,"byteOffset":2840,"byteLength":480,"target":34962,"byteStride":8},{"buffer":0,"byteOffset":3320,"byteLength":180,"target":34963},{"buffer":0,"byteOffset":3500,"byteLength":1440,"target":34962,"byteStride":12},{"buffer":0,"byteOffset":4940,"byteLength":1440,"target":34962,"byteStride":12},{"buffer":0,"byteOffset":6380,"byteLength":960,"target":34962,"byteStride":8},{"buffer":0,"byteOffset":7340,"byteLength":360,"target":34963}],"buffers":[{"byteLength":7700,"uri":"data:application/octet-stream;base64,"}],"accessors":[{"bufferView":0,"componentType":5126,"count":24,"max":[29.3125,0.5,5.5],"min":[25.3125,0,-5.5],"type":"VEC3"},{"bufferView":1,"componentType":5126,"count":24,"max":[0,1,0.3511234521865845],"min":[-1,0,-0.3511234521865845],"type":"VEC3"},{"bufferView":2,"componentType":5126,"count":24,"max":[0.6067890524864197,0.34375],"min":[0,0],"type":"VEC2"},{"bufferView":3,"componentType":5123,"count":36,"max":[23],"min":[0],"type":"SCALAR"},{"bufferView":4,"componentType":5126,"count":12,"max":[29.3125,4.625,5.5],"min":[25.3125,0,-5.5],"type":"VEC3"},{"bufferView":5,"componentType":5126,"count":12,"max":[0,0,1],"min":[-1,0,-1],"type":"VEC3"},{"bufferView":6,"componentType":5126,"count":12,"max":[0.6875,0.58203125],"min":[0,0],"type":"VEC2"},{"bufferView":7,"componentType":5123,"count":18,"max":[11],"min":[0],"type":"SCALAR"},{"bufferView":8,"componentType":5126,"count":4,"max":[29.3125,4.625,5.5],"min":[25.3125,4.625,-5.5],"type":"VEC3"},{"bufferView":9,"componentType":5126,"count":4,"max":[0,1,0],"min":[0,1,0],"type":"VEC3"},{"bufferView":10,"componentType":5126,"count":4,"max":[0.25,0.6875],"min":[0,0],"type":"VEC2"},{"bufferView":11,"componentType":5123,"count":6,"max":[3],"min":[0],"type":"SCALAR"},{"bufferView":12,"componentType":5126,"count":60,"max":[29.25,4.625,5.5],"min":[25.375,1.5,-5.5],"type":"VEC3"},{"bufferView":13,"componentType":5126,"count":60,"max":[1,0,1],"min":[-1,0,0],"type":"VEC3"},{"bufferView":14,"componentType":5126,"count":60,"max":[0.6875,0.4140625],"min":[0,0],"type":"VEC2"},{"bufferView":15,"componentType":5123,"count":90,"max":[59],"min":[0],"type":"SCALAR"},{"bufferView":16,"componentType":5126,"count":120,"max":[26.55544090270996,2.3125,-5.551434516906738],"min":[21.87070655822754,0.5,-15.345109939575195],"type":"VEC3"},{"bufferView":17,"componentType":5126,"count":120,"max":[1,1,1],"min":[-1,0,-1],"type":"VEC3"},{"bufferView":18,"componentType":5126,"count":120,"max":[0.5078125,0.546875],"min":[0,0],"type":"VEC2"},{"bufferView":19,"componentType":5123,"count":180,"max":[119],"min":[0],"type":"SCALAR"}],"materials":[{"pbrMetallicRoughness":{"metallicFactor":0,"roughnessFactor":1,"baseColorTexture":{"index":0}},"alphaMode":"MASK","alphaCutoff":0.05,"doubleSided":true},{"pbrMetallicRoughness":{"metallicFactor":0,"roughnessFactor":1,"baseColorTexture":{"index":1}},"alphaMode":"MASK","alphaCutoff":0.05,"doubleSided":true},{"pbrMetallicRoughness":{"metallicFactor":0,"roughnessFactor":1,"baseColorTexture":{"index":2}},"alphaMode":"MASK","alphaCutoff":0.05,"doubleSided":true},{"pbrMetallicRoughness":{"metallicFactor":0,"roughnessFactor":1,"baseColorTexture":{"index":3}},"alphaMode":"MASK","alphaCutoff":0.05,"doubleSided":true},{"pbrMetallicRoughness":{"metallicFactor":0,"roughnessFactor":1,"baseColorTexture":{"index":4}},"alphaMode":"MASK","alphaCutoff":0.05,"doubleSided":true}],"textures":[{"sampler":0,"source":0},{"sampler":1,"source":1},{"sampler":2,"source":2},{"sampler":3,"source":3},{"sampler":4,"source":4}],"samplers":[{"magFilter":9728,"minFilter":9728,"wrapS":33071,"wrapT":33071},{"magFilter":9728,"minFilter":9728,"wrapS":33071,"wrapT":33071},{"magFilter":9728,"minFilter":9728,"wrapS":33071,"wrapT":33071},{"magFilter":9728,"minFilter":9728,"wrapS":33071,"wrapT":33071},{"magFilter":9728,"minFilter":9728,"wrapS":33071,"wrapT":33071}],"images":[{"mimeType":"image/png","uri":"data:image/png;base64,"},{"mimeType":"image/png","uri":"data:image/png;base64,"},{"mimeType":"image/png","uri":"data:image/png;base64,"},{"mimeType":"image/png","uri":"data:image/png;base64,"},{"mimeType":"image/png","uri":"data:image/png;base64,"}],"meshes":[{"primitives":[{"mode":4,"attributes":{"POSITION":0,"NORMAL":1,"TEXCOORD_0":2},"indices":3,"material":0}]},{"primitives":[{"mode":4,"attributes":{"POSITION":4,"NORMAL":5,"TEXCOORD_0":6},"indices":7,"material":1}]},{"primitives":[{"mode":4,"attributes":{"POSITION":8,"NORMAL":9,"TEXCOORD_0":10},"indices":11,"material":2}]},{"primitives":[{"mode":4,"attributes":{"POSITION":12,"NORMAL":13,"TEXCOORD_0":14},"indices":15,"material":3}]},{"primitives":[{"mode":4,"attributes":{"POSITION":16,"NORMAL":17,"TEXCOORD_0":18},"indices":19,"material":4}]}]}