{"asset":{"version":"2.0","generator":"Blockbench 4.9.4 glTF exporter"},"scenes":[{"nodes":[3],"name":"blockbench_export"}],"scene":0,"nodes":[{"name":"cctvbase","mesh":0},{"name":"cctvstem","mesh":1},{"name":"cctvhead","mesh":2},{"children":[0,1,2]}],"bufferViews":[{"buffer":0,"byteOffset":0,"byteLength":240,"target":34962,"byteStride":12},{"buffer":0,"byteOffset":240,"byteLength":240,"target":34962,"byteStride":12},{"buffer":0,"byteOffset":480,"byteLength":160,"target":34962,"byteStride":8},{"buffer":0,"byteOffset":640,"byteLength":60,"target":34963},{"buffer":0,"byteOffset":700,"byteLength":384,"target":34962,"byteStride":12},{"buffer":0,"byteOffset":1084,"byteLength":384,"target":34962,"byteStride":12},{"buffer":0,"byteOffset":1468,"byteLength":256,"target":34962,"byteStride":8},{"buffer":0,"byteOffset":1724,"byteLength":96,"target":34963},{"buffer":0,"byteOffset":1820,"byteLength":288,"target":34962,"byteStride":12},{"buffer":0,"byteOffset":2108,"byteLength":288,"target":34962,"byteStride":12},{"buffer":0,"byteOffset":2396,"byteLength":192,"target":34962,"byteStride":8},{"buffer":0,"byteOffset":2588,"byteLength":72,"target":34963}],"buffers":[{"byteLength":2660,"uri":"data:application/octet-stream;base64,"}],"accessors":[{"bufferView":0,"componentType":5126,"count":20,"max":[0.125,0.25,0.375],"min":[-0.125,0,0.3125],"type":"VEC3"},{"bufferView":1,"componentType":5126,"count":20,"max":[1,1,0],"min":[-1,-1,-1],"type":"VEC3"},{"bufferView":2,"componentType":5126,"count":20,"max":[0.625,0.59375],"min":[0,0.3125],"type":"VEC2"},{"bufferView":3,"componentType":5123,"count":30,"max":[19],"min":[0],"type":"SCALAR"},{"bufferView":4,"componentType":5126,"count":32,"max":[0.03125,0.21875,0.3125],"min":[-0.03125,0.09375,-0.09375],"type":"VEC3"},{"bufferView":5,"componentType":5126,"count":32,"max":[1,1,0.4472135901451111],"min":[-1,-1,-0.49613893032073975],"type":"VEC3"},{"bufferView":6,"componentType":5126,"count":32,"max":[0.6484375,0.6323750019073486],"min":[0,0.3125],"type":"VEC2"},{"bufferView":7,"componentType":5123,"count":48,"max":[31],"min":[0],"type":"SCALAR"},{"bufferView":8,"componentType":5126,"count":24,"max":[0.125,0.46875,0.1875],"min":[-0.125,0.21875,-0.3125],"type":"VEC3"},{"bufferView":9,"componentType":5126,"count":24,"max":[1,1,1],"min":[-1,-1,-1],"type":"VEC3"},{"bufferView":10,"componentType":5126,"count":24,"max":[0.5625,0.53125],"min":[0,0],"type":"VEC2"},{"bufferView":11,"componentType":5123,"count":36,"max":[23],"min":[0],"type":"SCALAR"}],"materials":[{"pbrMetallicRoughness":{"metallicFactor":0,"roughnessFactor":1,"baseColorTexture":{"index":0}},"alphaMode":"MASK","alphaCutoff":0.05,"doubleSided":true}],"textures":[{"sampler":0,"source":0}],"samplers":[{"magFilter":9728,"minFilter":9728,"wrapS":33071,"wrapT":33071}],"images":[{"mimeType":"image/png","uri":"data:image/png;base64,"}],"meshes":[{"primitives":[{"mode":4,"attributes":{"POSITION":0,"NORMAL":1,"TEXCOORD_0":2},"indices":3,"material":0}]},{"primitives":[{"mode":4,"attributes":{"POSITION":4,"NORMAL":5,"TEXCOORD_0":6},"indices":7,"material":0}]},{"primitives":[{"mode":4,"attributes":{"POSITION":8,"NORMAL":9,"TEXCOORD_0":10},"indices":11,"material":0}]}]}