{"asset":{"version":"2.0","generator":"Blockbench 4.9.4 glTF exporter"},"scenes":[{"nodes":[13],"name":"blockbench_export"}],"scene":0,"nodes":[{"name":"supplyclosettable","mesh":0},{"name":"supplycloseceiling","mesh":1},{"rotation":[0,0.7071067811865475,0,0.7071067811865476],"name":"supplyclosetdoor","mesh":2},{"rotation":[0,0,-0.043619387365336,0.9990482215818578],"name":"supplyclosebroom","mesh":3},{"name":"supplyclosebucket","mesh":4},{"name":"supplyclosemop","mesh":5},{"name":"supplyclosetwall","mesh":6},{"name":"supplyclosefloor","mesh":7},{"name":"supplyclosetlightbulb","mesh":8},{"name":"supplyclosetlightcord","mesh":9},{"rotation":[0,-0.043619387365336,0,0.9990482215818578],"name":"supplypaper","mesh":10},{"rotation":[0,0.7071067811865475,0,0.7071067811865476],"name":"supplyclosetdoorknob","mesh":11},{"name":"supplyclosettableprop","mesh":12},{"children":[0,1,2,3,4,5,6,7,8,9,10,11,12]}],"bufferViews":[{"buffer":0,"byteOffset":0,"byteLength":2304,"target":34962,"byteStride":12},{"buffer":0,"byteOffset":2304,"byteLength":2304,"target":34962,"byteStride":12},{"buffer":0,"byteOffset":4608,"byteLength":1536,"target":34962,"byteStride":8},{"buffer":0,"byteOffset":6144,"byteLength":576,"target":34963},{"buffer":0,"byteOffset":6720,"byteLength":48,"target":34962,"byteStride":12},{"buffer":0,"byteOffset":6768,"byteLength":48,"target":34962,"byteStride":12},{"buffer":0,"byteOffset":6816,"byteLength":32,"target":34962,"byteStride":8},{"buffer":0,"byteOffset":6848,"byteLength":12,"target":34963},{"buffer":0,"byteOffset":6860,"byteLength":240,"target":34962,"byteStride":12},{"buffer":0,"byteOffset":7100,"byteLength":240,"target":34962,"byteStride":12},{"buffer":0,"byteOffset":7340,"byteLength":160,"target":34962,"byteStride":8},{"buffer":0,"byteOffset":7500,"byteLength":60,"target":34963},{"buffer":0,"byteOffset":7560,"byteLength":720,"target":34962,"byteStride":12},{"buffer":0,"byteOffset":8280,"byteLength":720,"target":34962,"byteStride":12},{"buffer":0,"byteOffset":9000,"byteLength":480,"target":34962,"byteStride":8},{"buffer":0,"byteOffset":9480,"byteLength":180,"target":34963},{"buffer":0,"byteOffset":9660,"byteLength":384,"target":34962,"byteStride":12},{"buffer":0,"byteOffset":10044,"byteLength":384,"target":34962,"byteStride":12},{"buffer":0,"byteOffset":10428,"byteLength":256,"target":34962,"byteStride":8},{"buffer":0,"byteOffset":10684,"byteLength":96,"target":34963},{"buffer":0,"byteOffset":10780,"byteLength":624,"target":34962,"byteStride":12},{"buffer":0,"byteOffset":11404,"byteLength":624,"target":34962,"byteStride":12},{"buffer":0,"byteOffset":12028,"byteLength":416,"target":34962,"byteStride":8},{"buffer":0,"byteOffset":12444,"byteLength":144,"target":34963},{"buffer":0,"byteOffset":12588,"byteLength":144,"target":34962,"byteStride":12},{"buffer":0,"byteOffset":12732,"byteLength":144,"target":34962,"byteStride":12},{"buffer":0,"byteOffset":12876,"byteLength":96,"target":34962,"byteStride":8},{"buffer":0,"byteOffset":12972,"byteLength":36,"target":34963},{"buffer":0,"byteOffset":13008,"byteLength":48,"target":34962,"byteStride":12},{"buffer":0,"byteOffset":13056,"byteLength":48,"target":34962,"byteStride":12},{"buffer":0,"byteOffset":13104,"byteLength":32,"target":34962,"byteStride":8},{"buffer":0,"byteOffset":13136,"byteLength":12,"target":34963},{"buffer":0,"byteOffset":13148,"byteLength":576,"target":34962,"byteStride":12},{"buffer":0,"byteOffset":13724,"byteLength":576,"target":34962,"byteStride":12},{"buffer":0,"byteOffset":14300,"byteLength":384,"target":34962,"byteStride":8},{"buffer":0,"byteOffset":14684,"byteLength":144,"target":34963},{"buffer":0,"byteOffset":14828,"byteLength":528,"target":34962,"byteStride":12},{"buffer":0,"byteOffset":15356,"byteLength":528,"target":34962,"byteStride":12},{"buffer":0,"byteOffset":15884,"byteLength":352,"target":34962,"byteStride":8},{"buffer":0,"byteOffset":16236,"byteLength":132,"target":34963},{"buffer":0,"byteOffset":16368,"byteLength":720,"target":34962,"byteStride":12},{"buffer":0,"byteOffset":17088,"byteLength":720,"target":34962,"byteStride":12},{"buffer":0,"byteOffset":17808,"byteLength":480,"target":34962,"byteStride":8},{"buffer":0,"byteOffset":18288,"byteLength":144,"target":34963},{"buffer":0,"byteOffset":18432,"byteLength":480,"target":34962,"byteStride":12},{"buffer":0,"byteOffset":18912,"byteLength":480,"target":34962,"byteStride":12},{"buffer":0,"byteOffset":19392,"byteLength":320,"target":34962,"byteStride":8},{"buffer":0,"byteOffset":19712,"byteLength":120,"target":34963},{"buffer":0,"byteOffset":19832,"byteLength":96,"target":34962,"byteStride":12},{"buffer":0,"byteOffset":19928,"byteLength":96,"target":34962,"byteStride":12},{"buffer":0,"byteOffset":20024,"byteLength":64,"target":34962,"byteStride":8},{"buffer":0,"byteOffset":20088,"byteLength":24,"target":34963}],"buffers":[{"byteLength":20112,"uri":"data:application/octet-stream;base64,"}],"accessors":[{"bufferView":0,"componentType":5126,"count":192,"max":[4.1875,1.375,-8.5],"min":[1.4375,0,-9.5],"type":"VEC3"},{"bufferView":1,"componentType":5126,"count":192,"max":[1,1,1],"min":[-1,-1,-1],"type":"VEC3"},{"bufferView":2,"componentType":5126,"count":192,"max":[0.765625,0.78125],"min":[0,0],"type":"VEC2"},{"bufferView":3,"componentType":5123,"count":288,"max":[191],"min":[0],"type":"SCALAR"},{"bufferView":4,"componentType":5126,"count":4,"max":[4.3125,4.5625,-5.5],"min":[1.3125,4.5625,-9.5],"type":"VEC3"},{"bufferView":5,"componentType":5126,"count":4,"max":[0,1,0],"min":[0,1,0],"type":"VEC3"},{"bufferView":6,"componentType":5126,"count":4,"max":[0.75,1],"min":[0,0],"type":"VEC2"},{"bufferView":7,"componentType":5123,"count":6,"max":[3],"min":[0],"type":"SCALAR"},{"bufferView":8,"componentType":5126,"count":20,"max":[7.5,3.625,2.03125],"min":[5.5,0,1.84375],"type":"VEC3"},{"bufferView":9,"componentType":5126,"count":20,"max":[1,1,1],"min":[-1,0,-1],"type":"VEC3"},{"bufferView":10,"componentType":5126,"count":20,"max":[0.5078125,0.9140625],"min":[0,0],"type":"VEC2"},{"bufferView":11,"componentType":5123,"count":30,"max":[19],"min":[0],"type":"SCALAR"},{"bufferView":12,"componentType":5126,"count":60,"max":[4.125,3.0625,-6.5],"min":[3.875,0.3125,-7.25],"type":"VEC3"},{"bufferView":13,"componentType":5126,"count":60,"max":[1,1,1],"min":[-1,-1,-1],"type":"VEC3"},{"bufferView":14,"componentType":5126,"count":60,"max":[0.484375,0.703125],"min":[0,0],"type":"VEC2"},{"bufferView":15,"componentType":5123,"count":90,"max":[59],"min":[0],"type":"SCALAR"},{"bufferView":16,"componentType":5126,"count":32,"max":[4.1875,0.5,-5.6875],"min":[3.4375,0,-6.4375],"type":"VEC3"},{"bufferView":17,"componentType":5126,"count":32,"max":[0.9922778606414795,-0.08804509043693542,0.9922778606414795],"min":[-0.9922778606414795,-0.12403473258018494,-0.9922778606414795],"type":"VEC3"},{"bufferView":18,"componentType":5126,"count":32,"max":[0.5695734620094299,0.84375],"min":[0,0],"type":"VEC2"},{"bufferView":19,"componentType":5123,"count":48,"max":[31],"min":[0],"type":"SCALAR"},{"bufferView":20,"componentType":5126,"count":52,"max":[4.3125,2.75,-5.75],"min":[3.5,0,-6.375],"type":"VEC3"},{"bufferView":21,"componentType":5126,"count":52,"max":[0.9834532141685486,1,1],"min":[-0.9834532141685486,-1,-1],"type":"VEC3"},{"bufferView":22,"componentType":5126,"count":52,"max":[0.6640756726264954,0.65625],"min":[0,0],"type":"VEC2"},{"bufferView":23,"componentType":5123,"count":72,"max":[51],"min":[0],"type":"SCALAR"},{"bufferView":24,"componentType":5126,"count":12,"max":[4.3125,4.59375,-5.5],"min":[1.3125,0,-9.5],"type":"VEC3"},{"bufferView":25,"componentType":5126,"count":12,"max":[1,0,1],"min":[-1,0,0],"type":"VEC3"},{"bufferView":26,"componentType":5126,"count":12,"max":[0.50390625,0.58203125],"min":[0,0],"type":"VEC2"},{"bufferView":27,"componentType":5123,"count":18,"max":[11],"min":[0],"type":"SCALAR"},{"bufferView":28,"componentType":5126,"count":4,"max":[4.3125,0,-5.5],"min":[1.3125,0,-9.5],"type":"VEC3"},{"bufferView":29,"componentType":5126,"count":4,"max":[0,1,0],"min":[0,1,0],"type":"VEC3"},{"bufferView":30,"componentType":5126,"count":4,"max":[0.75,1],"min":[0,0],"type":"VEC2"},{"bufferView":31,"componentType":5123,"count":6,"max":[3],"min":[0],"type":"SCALAR"},{"bufferView":32,"componentType":5126,"count":48,"max":[2.3125,3.5,-8],"min":[2.0625,3.125,-8.25],"type":"VEC3"},{"bufferView":33,"componentType":5126,"count":48,"max":[1,1,1],"min":[-1,-1,-1],"type":"VEC3"},{"bufferView":34,"componentType":5126,"count":48,"max":[1,0.9375],"min":[0,0],"type":"VEC2"},{"bufferView":35,"componentType":5123,"count":72,"max":[47],"min":[0],"type":"SCALAR"},{"bufferView":36,"componentType":5126,"count":44,"max":[2.28125,4.5625,-8.03125],"min":[2.09375,3.5,-8.21875],"type":"VEC3"},{"bufferView":37,"componentType":5126,"count":44,"max":[1,1,1],"min":[-1,-1,-1],"type":"VEC3"},{"bufferView":38,"componentType":5126,"count":44,"max":[0.9375,0.9375],"min":[0,0],"type":"VEC2"},{"bufferView":39,"componentType":5123,"count":66,"max":[43],"min":[0],"type":"SCALAR"},{"bufferView":40,"componentType":5126,"count":60,"max":[3.367516279220581,0.24080589413642883,-7.621200084686279],"min":[3.1359901428222656,-0.008851493708789349,-7.875237464904785],"type":"VEC3"},{"bufferView":41,"componentType":5126,"count":60,"max":[0.9914500713348389,0.888049840927124,0.9226685166358948],"min":[-0.9914500713348389,-0.888049840927124,-0.9226685166358948],"type":"VEC3"},{"bufferView":42,"componentType":5126,"count":60,"max":[0.6875,0.75],"min":[0,0],"type":"VEC2"},{"bufferView":43,"componentType":5123,"count":72,"max":[59],"min":[0],"type":"SCALAR"},{"bufferView":44,"componentType":5126,"count":40,"max":[7.25,1.9375,2.25],"min":[7,1.6875,1.5625],"type":"VEC3"},{"bufferView":45,"componentType":5126,"count":40,"max":[1,1,1],"min":[-1,-1,-1],"type":"VEC3"},{"bufferView":46,"componentType":5126,"count":40,"max":[0.4375,0.59375],"min":[0,0],"type":"VEC2"},{"bufferView":47,"componentType":5123,"count":60,"max":[39],"min":[0],"type":"SCALAR"},{"bufferView":48,"componentType":5126,"count":8,"max":[4,1.25,-8.6875],"min":[1.625,0.25,-9],"type":"VEC3"},{"bufferView":49,"componentType":5126,"count":8,"max":[0,0,1],"min":[0,0,-1],"type":"VEC3"},{"bufferView":50,"componentType":5126,"count":8,"max":[0.59375,0.515625],"min":[0,0],"type":"VEC2"},{"bufferView":51,"componentType":5123,"count":12,"max":[7],"min":[0],"type":"SCALAR"}],"materials":[{"pbrMetallicRoughness":{"metallicFactor":0,"roughnessFactor":1,"baseColorTexture":{"index":0}},"alphaMode":"MASK","alphaCutoff":0.05,"doubleSided":true},{"pbrMetallicRoughness":{"metallicFactor":0,"roughnessFactor":1,"baseColorTexture":{"index":1}},"alphaMode":"MASK","alphaCutoff":0.05,"doubleSided":true},{"pbrMetallicRoughness":{"metallicFactor":0,"roughnessFactor":1,"baseColorTexture":{"index":2}},"alphaMode":"MASK","alphaCutoff":0.05,"doubleSided":true},{"pbrMetallicRoughness":{"metallicFactor":0,"roughnessFactor":1,"baseColorTexture":{"index":3}},"alphaMode":"MASK","alphaCutoff":0.05,"doubleSided":true},{"pbrMetallicRoughness":{"metallicFactor":0,"roughnessFactor":1,"baseColorTexture":{"index":4}},"alphaMode":"MASK","alphaCutoff":0.05,"doubleSided":true},{"pbrMetallicRoughness":{"metallicFactor":0,"roughnessFactor":1,"baseColorTexture":{"index":5}},"alphaMode":"MASK","alphaCutoff":0.05,"doubleSided":true},{"pbrMetallicRoughness":{"metallicFactor":0,"roughnessFactor":1,"baseColorTexture":{"index":6}},"alphaMode":"MASK","alphaCutoff":0.05,"doubleSided":true},{"pbrMetallicRoughness":{"metallicFactor":0,"roughnessFactor":1,"baseColorTexture":{"index":7}},"alphaMode":"MASK","alphaCutoff":0.05,"doubleSided":true},{"pbrMetallicRoughness":{"metallicFactor":0,"roughnessFactor":1,"baseColorTexture":{"index":8}},"alphaMode":"MASK","alphaCutoff":0.05,"doubleSided":true},{"pbrMetallicRoughness":{"metallicFactor":0,"roughnessFactor":1,"baseColorTexture":{"index":9}},"alphaMode":"MASK","alphaCutoff":0.05,"doubleSided":true},{"pbrMetallicRoughness":{"metallicFactor":0,"roughnessFactor":1,"baseColorTexture":{"index":10}},"alphaMode":"MASK","alphaCutoff":0.05,"doubleSided":true},{"pbrMetallicRoughness":{"metallicFactor":0,"roughnessFactor":1,"baseColorTexture":{"index":11}},"alphaMode":"MASK","alphaCutoff":0.05,"doubleSided":true},{"pbrMetallicRoughness":{"metallicFactor":0,"roughnessFactor":1,"baseColorTexture":{"index":12}},"alphaMode":"MASK","alphaCutoff":0.05,"doubleSided":true}],"textures":[{"sampler":0,"source":0},{"sampler":1,"source":1},{"sampler":2,"source":2},{"sampler":3,"source":3},{"sampler":4,"source":4},{"sampler":5,"source":5},{"sampler":6,"source":6},{"sampler":7,"source":7},{"sampler":8,"source":8},{"sampler":9,"source":9},{"sampler":10,"source":10},{"sampler":11,"source":11},{"sampler":12,"source":12}],"samplers":[{"magFilter":9728,"minFilter":9728,"wrapS":33071,"wrapT":33071},{"magFilter":9728,"minFilter":9728,"wrapS":33071,"wrapT":33071},{"magFilter":9728,"minFilter":9728,"wrapS":33071,"wrapT":33071},{"magFilter":9728,"minFilter":9728,"wrapS":33071,"wrapT":33071},{"magFilter":9728,"minFilter":9728,"wrapS":33071,"wrapT":33071},{"magFilter":9728,"minFilter":9728,"wrapS":33071,"wrapT":33071},{"magFilter":9728,"minFilter":9728,"wrapS":33071,"wrapT":33071},{"magFilter":9728,"minFilter":9728,"wrapS":33071,"wrapT":33071},{"magFilter":9728,"minFilter":9728,"wrapS":33071,"wrapT":33071},{"magFilter":9728,"minFilter":9728,"wrapS":33071,"wrapT":33071},{"magFilter":9728,"minFilter":9728,"wrapS":33071,"wrapT":33071},{"magFilter":9728,"minFilter":9728,"wrapS":33071,"wrapT":33071},{"magFilter":9728,"minFilter":9728,"wrapS":33071,"wrapT":33071}],"images":[{"mimeType":"image/png","uri":"data:image/png;base64,"},{"mimeType":"image/png","uri":"data:image/png;base64,"},{"mimeType":"image/png","uri":"data:image/png;base64,"},{"mimeType":"image/png","uri":"data:image/png;base64,"},{"mimeType":"image/png","uri":"data:image/png;base64,"},{"mimeType":"image/png","uri":"data:image/png;base64,"},{"mimeType":"image/png","uri":"data:image/png;base64,"},{"mimeType":"image/png","uri":"data:image/png;base64,"},{"mimeType":"image/png","uri":"data:image/png;base64,"},{"mimeType":"image/png","uri":"data:image/png;base64,"},{"mimeType":"image/png","uri":"data:image/png;base64,"},{"mimeType":"image/png","uri":"data:image/png;base64,"},{"mimeType":"image/png","uri":"data:image/png;base64,"}],"meshes":[{"primitives":[{"mode":4,"attributes":{"POSITION":0,"NORMAL":1,"TEXCOORD_0":2},"indices":3,"material":0}]},{"primitives":[{"mode":4,"attributes":{"POSITION":4,"NORMAL":5,"TEXCOORD_0":6},"indices":7,"material":1}]},{"primitives":[{"mode":4,"attributes":{"POSITION":8,"NORMAL":9,"TEXCOORD_0":10},"indices":11,"material":2}]},{"primitives":[{"mode":4,"attributes":{"POSITION":12,"NORMAL":13,"TEXCOORD_0":14},"indices":15,"material":3}]},{"primitives":[{"mode":4,"attributes":{"POSITION":16,"NORMAL":17,"TEXCOORD_0":18},"indices":19,"material":4}]},{"primitives":[{"mode":4,"attributes":{"POSITION":20,"NORMAL":21,"TEXCOORD_0":22},"indices":23,"material":5}]},{"primitives":[{"mode":4,"attributes":{"POSITION":24,"NORMAL":25,"TEXCOORD_0":26},"indices":27,"material":6}]},{"primitives":[{"mode":4,"attributes":{"POSITION":28,"NORMAL":29,"TEXCOORD_0":30},"indices":31,"material":7}]},{"primitives":[{"mode":4,"attributes":{"POSITION":32,"NORMAL":33,"TEXCOORD_0":34},"indices":35,"material":8}]},{"primitives":[{"mode":4,"attributes":{"POSITION":36,"NORMAL":37,"TEXCOORD_0":38},"indices":39,"material":9}]},{"primitives":[{"mode":4,"attributes":{"POSITION":40,"NORMAL":41,"TEXCOORD_0":42},"indices":43,"material":10}]},{"primitives":[{"mode":4,"attributes":{"POSITION":44,"NORMAL":45,"TEXCOORD_0":46},"indices":47,"material":11}]},{"primitives":[{"mode":4,"attributes":{"POSITION":48,"NORMAL":49,"TEXCOORD_0":50},"indices":51,"material":12}]}]}