{"asset":{"version":"2.0","generator":"Blockbench 4.9.4 glTF exporter"},"scenes":[{"nodes":[6],"name":"blockbench_export"}],"scene":0,"nodes":[{"name":"restroomshangingprops","mesh":0},{"name":"restroomsfloor","mesh":1},{"name":"restoormswall","mesh":2},{"name":"restroomsceiling","mesh":3},{"name":"restroomslightrim","mesh":4},{"name":"restroomslightbulb","mesh":5},{"children":[0,1,2,3,4,5]}],"bufferViews":[{"buffer":0,"byteOffset":0,"byteLength":1056,"target":34962,"byteStride":12},{"buffer":0,"byteOffset":1056,"byteLength":1056,"target":34962,"byteStride":12},{"buffer":0,"byteOffset":2112,"byteLength":704,"target":34962,"byteStride":8},{"buffer":0,"byteOffset":2816,"byteLength":264,"target":34963},{"buffer":0,"byteOffset":3080,"byteLength":672,"target":34962,"byteStride":12},{"buffer":0,"byteOffset":3752,"byteLength":672,"target":34962,"byteStride":12},{"buffer":0,"byteOffset":4424,"byteLength":448,"target":34962,"byteStride":8},{"buffer":0,"byteOffset":4872,"byteLength":168,"target":34963},{"buffer":0,"byteOffset":5040,"byteLength":1584,"target":34962,"byteStride":12},{"buffer":0,"byteOffset":6624,"byteLength":1584,"target":34962,"byteStride":12},{"buffer":0,"byteOffset":8208,"byteLength":1056,"target":34962,"byteStride":8},{"buffer":0,"byteOffset":9264,"byteLength":396,"target":34963},{"buffer":0,"byteOffset":9660,"byteLength":480,"target":34962,"byteStride":12},{"buffer":0,"byteOffset":10140,"byteLength":480,"target":34962,"byteStride":12},{"buffer":0,"byteOffset":10620,"byteLength":320,"target":34962,"byteStride":8},{"buffer":0,"byteOffset":10940,"byteLength":120,"target":34963},{"buffer":0,"byteOffset":11060,"byteLength":768,"target":34962,"byteStride":12},{"buffer":0,"byteOffset":11828,"byteLength":768,"target":34962,"byteStride":12},{"buffer":0,"byteOffset":12596,"byteLength":512,"target":34962,"byteStride":8},{"buffer":0,"byteOffset":13108,"byteLength":192,"target":34963},{"buffer":0,"byteOffset":13300,"byteLength":672,"target":34962,"byteStride":12},{"buffer":0,"byteOffset":13972,"byteLength":672,"target":34962,"byteStride":12},{"buffer":0,"byteOffset":14644,"byteLength":448,"target":34962,"byteStride":8},{"buffer":0,"byteOffset":15092,"byteLength":144,"target":34963}],"buffers":[{"byteLength":15236,"uri":"data:application/octet-stream;base64,"}],"accessors":[{"bufferView":0,"componentType":5126,"count":88,"max":[23.5,4.625,14.75],"min":[10.125,0.8125,11.75],"type":"VEC3"},{"bufferView":1,"componentType":5126,"count":88,"max":[2.6645352591003757e-15,0,1],"min":[-1,0,-1],"type":"VEC3"},{"bufferView":2,"componentType":5126,"count":88,"max":[0.890625,0.8359375],"min":[0,0],"type":"VEC2"},{"bufferView":3,"componentType":5123,"count":132,"max":[87],"min":[0],"type":"SCALAR"},{"bufferView":4,"componentType":5126,"count":56,"max":[25.0625,0,17.0625],"min":[9.8125,0,11.5],"type":"VEC3"},{"bufferView":5,"componentType":5126,"count":56,"max":[0,1,0],"min":[0,1,0],"type":"VEC3"},{"bufferView":6,"componentType":5126,"count":56,"max":[0.7265625,0.5234375],"min":[0,0],"type":"VEC2"},{"bufferView":7,"componentType":5123,"count":84,"max":[55],"min":[0],"type":"SCALAR"},{"bufferView":8,"componentType":5126,"count":132,"max":[25.3125,4.625,17],"min":[9.8125,0,11.5],"type":"VEC3"},{"bufferView":9,"componentType":5126,"count":132,"max":[1,0,1],"min":[-1,-1,-1],"type":"VEC3"},{"bufferView":10,"componentType":5126,"count":132,"max":[0.546875,0.619140625],"min":[0,0],"type":"VEC2"},{"bufferView":11,"componentType":5123,"count":198,"max":[131],"min":[0],"type":"SCALAR"},{"bufferView":12,"componentType":5126,"count":40,"max":[25.0625,4.625,17.0625],"min":[9.8125,4.625,11.75],"type":"VEC3"},{"bufferView":13,"componentType":5126,"count":40,"max":[0,1,0],"min":[0,1,0],"type":"VEC3"},{"bufferView":14,"componentType":5126,"count":40,"max":[0.953125,0.33203125],"min":[0,0],"type":"VEC2"},{"bufferView":15,"componentType":5123,"count":60,"max":[39],"min":[0],"type":"SCALAR"},{"bufferView":16,"componentType":5126,"count":64,"max":[23.740846633911133,4.625,13.740846633911133],"min":[22.634153366088867,4.59375,12.634153366088867],"type":"VEC3"},{"bufferView":17,"componentType":5126,"count":64,"max":[1,0,1],"min":[-1,-1,-1],"type":"VEC3"},{"bufferView":18,"componentType":5126,"count":64,"max":[0.78125,0.5625],"min":[0.004575000144541264,0],"type":"VEC2"},{"bufferView":19,"componentType":5123,"count":96,"max":[63],"min":[0],"type":"SCALAR"},{"bufferView":20,"componentType":5126,"count":56,"max":[23.6875,4.59375,13.6875],"min":[22.6875,4.40625,12.6875],"type":"VEC3"},{"bufferView":21,"componentType":5126,"count":56,"max":[0.6711449027061462,-0.7413262128829956,0.6711449027061462],"min":[-0.6711449027061462,-0.9881502985954285,-0.6711449027061462],"type":"VEC3"},{"bufferView":22,"componentType":5126,"count":56,"max":[0.9624698162078857,0.625],"min":[0.012638414278626442,0.009827733039855957],"type":"VEC2"},{"bufferView":23,"componentType":5123,"count":72,"max":[55],"min":[0],"type":"SCALAR"}],"materials":[{"pbrMetallicRoughness":{"metallicFactor":0,"roughnessFactor":1,"baseColorTexture":{"index":0}},"alphaMode":"MASK","alphaCutoff":0.05,"doubleSided":true},{"pbrMetallicRoughness":{"metallicFactor":0,"roughnessFactor":1,"baseColorTexture":{"index":1}},"alphaMode":"MASK","alphaCutoff":0.05,"doubleSided":true},{"pbrMetallicRoughness":{"metallicFactor":0,"roughnessFactor":1,"baseColorTexture":{"index":2}},"alphaMode":"MASK","alphaCutoff":0.05,"doubleSided":true},{"pbrMetallicRoughness":{"metallicFactor":0,"roughnessFactor":1,"baseColorTexture":{"index":3}},"alphaMode":"MASK","alphaCutoff":0.05,"doubleSided":true},{"pbrMetallicRoughness":{"metallicFactor":0,"roughnessFactor":1,"baseColorTexture":{"index":4}},"alphaMode":"MASK","alphaCutoff":0.05,"doubleSided":true},{"pbrMetallicRoughness":{"metallicFactor":0,"roughnessFactor":1,"baseColorTexture":{"index":5}},"alphaMode":"MASK","alphaCutoff":0.05,"doubleSided":true}],"textures":[{"sampler":0,"source":0},{"sampler":1,"source":1},{"sampler":2,"source":2},{"sampler":3,"source":3},{"sampler":4,"source":4},{"sampler":5,"source":5}],"samplers":[{"magFilter":9728,"minFilter":9728,"wrapS":33071,"wrapT":33071},{"magFilter":9728,"minFilter":9728,"wrapS":33071,"wrapT":33071},{"magFilter":9728,"minFilter":9728,"wrapS":33071,"wrapT":33071},{"magFilter":9728,"minFilter":9728,"wrapS":33071,"wrapT":33071},{"magFilter":9728,"minFilter":9728,"wrapS":33071,"wrapT":33071},{"magFilter":9728,"minFilter":9728,"wrapS":33071,"wrapT":33071}],"images":[{"mimeType":"image/png","uri":"data:image/png;base64,"},{"mimeType":"image/png","uri":"data:image/png;base64,"},{"mimeType":"image/png","uri":"data:image/png;base64,"},{"mimeType":"image/png","uri":"data:image/png;base64,"},{"mimeType":"image/png","uri":"data:image/png;base64,"},{"mimeType":"image/png","uri":"data:image/png;base64,"}],"meshes":[{"primitives":[{"mode":4,"attributes":{"POSITION":0,"NORMAL":1,"TEXCOORD_0":2},"indices":3,"material":0}]},{"primitives":[{"mode":4,"attributes":{"POSITION":4,"NORMAL":5,"TEXCOORD_0":6},"indices":7,"material":1}]},{"primitives":[{"mode":4,"attributes":{"POSITION":8,"NORMAL":9,"TEXCOORD_0":10},"indices":11,"material":2}]},{"primitives":[{"mode":4,"attributes":{"POSITION":12,"NORMAL":13,"TEXCOORD_0":14},"indices":15,"material":3}]},{"primitives":[{"mode":4,"attributes":{"POSITION":16,"NORMAL":17,"TEXCOORD_0":18},"indices":19,"material":4}]},{"primitives":[{"mode":4,"attributes":{"POSITION":20,"NORMAL":21,"TEXCOORD_0":22},"indices":23,"material":5}]}]}